<mxfile host="www.draw.io" modified="2020-05-06T10:47:14.098Z" agent="5.0 (Macintosh; Intel Mac OS X 10_15_3) AppleWebKit/537.36 (KHTML, like Gecko) Chrome/81.0.4044.129 Safari/537.36" etag="Eby_bnZyVHbjWI4LYp3x" version="12.9.10" type="github">
  <diagram id="rymBXMBcI3aAxRkj8MlZ" name="第 1 页">
    <mxGraphModel dx="1412" dy="851" grid="1" gridSize="10" guides="1" tooltips="1" connect="1" arrows="1" fold="1" page="1" pageScale="1" pageWidth="827" pageHeight="1169" math="0" shadow="0">
      <root>
        <mxCell id="0" />
        <mxCell id="1" parent="0" />
        <mxCell id="GEuZke-Skp5Tfs3HKP2n-107" value="" style="group" vertex="1" connectable="0" parent="1">
          <mxGeometry x="90" y="120" width="678" height="419" as="geometry" />
        </mxCell>
        <mxCell id="GEuZke-Skp5Tfs3HKP2n-105" value="" style="group" vertex="1" connectable="0" parent="GEuZke-Skp5Tfs3HKP2n-107">
          <mxGeometry width="677.9999999999999" height="419" as="geometry" />
        </mxCell>
        <mxCell id="GEuZke-Skp5Tfs3HKP2n-104" value="" style="rounded=0;whiteSpace=wrap;html=1;strokeColor=none;fontFamily=宋体;fillColor=#d5e8d4;" vertex="1" parent="GEuZke-Skp5Tfs3HKP2n-105">
          <mxGeometry x="360.06213017751475" width="317.9378698224852" height="419" as="geometry" />
        </mxCell>
        <mxCell id="GEuZke-Skp5Tfs3HKP2n-103" value="" style="rounded=0;whiteSpace=wrap;html=1;strokeColor=none;fontFamily=宋体;fillColor=#d5e8d4;" vertex="1" parent="GEuZke-Skp5Tfs3HKP2n-105">
          <mxGeometry width="361.07" height="340" as="geometry" />
        </mxCell>
        <mxCell id="GEuZke-Skp5Tfs3HKP2n-95" value="" style="endArrow=none;html=1;fontFamily=宋体;fontColor=#000000;fillColor=#ffcc99;strokeColor=#67AB9F;strokeWidth=3;" edge="1" parent="1">
          <mxGeometry width="50" height="50" relative="1" as="geometry">
            <mxPoint x="770" y="539" as="sourcePoint" />
            <mxPoint x="770" y="539" as="targetPoint" />
            <Array as="points">
              <mxPoint x="770" y="120" />
              <mxPoint x="90" y="120" />
              <mxPoint x="90" y="459" />
              <mxPoint x="450" y="459" />
              <mxPoint x="450" y="539" />
            </Array>
          </mxGeometry>
        </mxCell>
        <mxCell id="GEuZke-Skp5Tfs3HKP2n-33" value="" style="rounded=0;whiteSpace=wrap;html=1;strokeColor=#36393d;fontFamily=宋体;fillColor=#cdeb8b;" vertex="1" parent="1">
          <mxGeometry x="100" y="162" width="280" height="280" as="geometry" />
        </mxCell>
        <mxCell id="GEuZke-Skp5Tfs3HKP2n-109" value="存储数据" style="edgeStyle=orthogonalEdgeStyle;rounded=0;orthogonalLoop=1;jettySize=auto;html=1;entryX=0;entryY=0.5;entryDx=0;entryDy=0;startArrow=none;startFill=0;endArrow=classicThin;endFill=1;strokeColor=#1A1A1A;strokeWidth=1;fontFamily=宋体;fontColor=#000000;" edge="1" parent="1" source="GEuZke-Skp5Tfs3HKP2n-108" target="GEuZke-Skp5Tfs3HKP2n-34">
          <mxGeometry relative="1" as="geometry">
            <Array as="points">
              <mxPoint x="185" y="150" />
              <mxPoint x="440" y="150" />
              <mxPoint x="440" y="186" />
            </Array>
          </mxGeometry>
        </mxCell>
        <mxCell id="GEuZke-Skp5Tfs3HKP2n-108" value="" style="rounded=0;whiteSpace=wrap;html=1;shadow=1;strokeColor=#FF3333;fontFamily=宋体;fontColor=#000000;fillColor=none;dashed=1;dashPattern=1 1;" vertex="1" parent="1">
          <mxGeometry x="140" y="170" width="90" height="240" as="geometry" />
        </mxCell>
        <mxCell id="GEuZke-Skp5Tfs3HKP2n-32" value="" style="rounded=1;whiteSpace=wrap;html=1;fontFamily=宋体;fillColor=#eeeeee;strokeColor=#36393d;" vertex="1" parent="1">
          <mxGeometry x="470" y="280" width="280" height="250" as="geometry" />
        </mxCell>
        <mxCell id="GEuZke-Skp5Tfs3HKP2n-34" value="" style="rounded=0;whiteSpace=wrap;html=1;strokeColor=#56517e;fontFamily=宋体;fillColor=#d0cee2;" vertex="1" parent="1">
          <mxGeometry x="480" y="156" width="220" height="60" as="geometry" />
        </mxCell>
        <mxCell id="GEuZke-Skp5Tfs3HKP2n-51" style="edgeStyle=orthogonalEdgeStyle;rounded=0;orthogonalLoop=1;jettySize=auto;html=1;entryX=0;entryY=0.5;entryDx=0;entryDy=0;fontFamily=宋体;" edge="1" parent="1" source="GEuZke-Skp5Tfs3HKP2n-6" target="GEuZke-Skp5Tfs3HKP2n-50">
          <mxGeometry relative="1" as="geometry" />
        </mxCell>
        <mxCell id="GEuZke-Skp5Tfs3HKP2n-83" style="edgeStyle=orthogonalEdgeStyle;rounded=0;orthogonalLoop=1;jettySize=auto;html=1;entryX=0.25;entryY=1;entryDx=0;entryDy=0;startArrow=none;startFill=0;endArrow=classicThin;endFill=1;fontFamily=宋体;fontColor=#000000;exitX=0.25;exitY=0;exitDx=0;exitDy=0;" edge="1" parent="1" source="GEuZke-Skp5Tfs3HKP2n-6" target="GEuZke-Skp5Tfs3HKP2n-56">
          <mxGeometry relative="1" as="geometry">
            <Array as="points">
              <mxPoint x="522" y="409" />
              <mxPoint x="510" y="409" />
            </Array>
          </mxGeometry>
        </mxCell>
        <mxCell id="GEuZke-Skp5Tfs3HKP2n-85" value="read" style="text;html=1;align=center;verticalAlign=middle;resizable=0;points=[];fontFamily=宋体;fontColor=#000000;" vertex="1" connectable="0" parent="GEuZke-Skp5Tfs3HKP2n-83">
          <mxGeometry x="0.1462" y="-5" relative="1" as="geometry">
            <mxPoint x="-20" y="-2.0999999999999996" as="offset" />
          </mxGeometry>
        </mxCell>
        <mxCell id="GEuZke-Skp5Tfs3HKP2n-6" value="HIVE数仓" style="shape=image;verticalLabelPosition=bottom;labelBackgroundColor=#ffffff;verticalAlign=top;aspect=fixed;imageAspect=0;image=data:image/png,iVBORw0KGgoAAAANSUhEUgAAAIAAAACACAYAAADDPmHLAAAP/ElEQVR4Ae1dTYgkSRUOBMGDiuzBVfGgB0FERAURFXVAUBbFHQ8iKriK4E1mD4on2QFFGZDtrspqZ5cRZg+inqY9KXqpRlEGXOwWPAgLdmVkrcyOSI+gB08t70VFZmTmexGRmZF/1RFQZFZkZvy898X7i8hIIWKKFIgUiBSIFIgUiBSIFIgUiBSIFIgUiBSIFIgUiBSIFIgUGJwCB+fvFUt5IBK5Fkl6qo5yjXkL+aQ4OH/D4G2KFQ5AgdvnbxOJPBaJvHT8LsRqe1cAGGLaEwrAqE/khYPxFDAiGGYPgfbMrwLiAtUESJKYZkKBcMyvgmEtFtunZkKFK9rM/phvgiFKhUnCy4v52UYcZYciya7lv1X6tEjkSQtbAUBxjOVMkiBXqVFL+VWHwfdIAKNtCfQ8giHbtADDOgLBRtw+rynmmyK6ev5IgHRoklBCpC80BsJyex7ETgAwgr2hXFjGk0lPc9f1ysYxjrJnHExqznwTKEDYRXpTJA2lQlsgoBTa3nX0qQpw+K9c1ysDBNT3GNGjiKHzujHfBAKco6RpCASMOmbXqkWR/5P0RgvG677q44WAcvY2gWiGiJ07sheW+SZBUT00NhrtNoJfnzSTfY7r/Qhvoy6UT6o4vnPEa8L0x/zQQACR7cf8RztPBbwV/dP9ZY7p6TxBUOhBxvixxvXPBu90K4mwm5ACW8EmzcBl5QzY3D6RAA4aBACuWSW3UUd3VBHgQgB4xkqtgMAwDka5b1/gvkSesSBI5PWxSNKsXj9RaAMAXLsI4oY1a3n57s5ASF8oF2j5l5xfF4vzmyj1ElYSXAwuFS1Npi8BSjkx1ia/rRtGt65dLgKhqdcg/ZiFtoP8nkjk/5BuCgQw+0mrA1Alk01KhLXR9y5pcClQx3q6YX0RqLn7CLSwi+2f/PsxkUhZGjRKfVoG0sh0YOmLq3RYXQhMPtmFaFX8Hgiq4vlNQrZ2N4xtXMALjYHg8OfVHEZlEGRPKFoR9ITBMLmk9GWlE0bjgWi2BNJDEcJmBBXl28oa6loTINis+JuXrxJJ9ueSFFhmv8NurOQvS/lajUJUc1LJNvqbNtYFBiDKVFLhwhXg1EyqHm2D4Cj7co3Rh/ILFqNwXE+pRH+l+xkCZJvSvU3/AIFBj2IcHyd1TjCU27Scvu9XNPCYirbo70T+pgSCRXYPm81K1wZeRq/9J3XYTvw3Hf29NnSAwm20UBKB9w6Wm0+XAAD3H2zej63GAWCoVC1duODSAF0tqrAtwoARfNUS2gYEszTTbK7cIv1pCQSL7FZOPjpItM6vj3ai1ucTKqCj+B+tQwEqZsX2DhigMqiUpB8pASCRL+W3KTVDxAcsaiV/uM8TjezacSo6qkXnly+9XiTyUyKRP9hN8oB+vieS9DZG7G7LdztLtUoCC22WclUCwWr7mbwuSsWM7hbWGD9T/f/jv79HLLJvikT+Ko/McX3D/M19sci+kTOHOkksq5E4KfBc+i6RpP/KQQDRQTPRi1rsASfz+eDntG4ClXASvK7QBR5k13BE29xYKwjkpVjJF0WSfp5sGnoxTBgZRjOXks33RSKfFbcfvLF2CxUbGNXYphqEREtPa42fesbRwzeJRH5WLLIfilX6x3wUukAA11fpd8jusarAQp9b/3wLWRZkUka3DUxsQaEuUHpJE4wTc6HqHqKc5eZ9KOqX6R2x3PzFDgpGElBMAxo1pY+Ki1AGt99ytV7opaxTolHyEgM4vVQ6UqGgjzW42eN5XR9zXoEtOkh1kZYmj6hbh83jEN4G5cO23K+25T8+KhJ53818MICZJVwkjSzeANUy0lZpWAZVbuc8DuFqlEwgWNGyh8+/+GpxlN3yY7wR/IE9DKqJolETF46TtJOIBkJnSYTP1CWE/qzkxzAU+1z2DvH85s3i6OFrkad3XnlcLOUnxUJ+S6yyPzDg+A+p30kaeQZycOrcABkOrikF2xRCiUiVbrRnR6sjZ+r/V9nnRCL/WgPCcvPtWtPxPQhNj93Rd3YTF8VUn7W4krXKh8iweQSwzm9f5waU+1gFwX2S5NRIdnkD3FI713NkA/rOJMVcjtz52gM+dFumvy9JguX2rbXHlCtXkZQOQ46OtZzVyp5Ehi36BXpr1KjVABRKZJqD4HD7FbLG+ojmpSPn+0+ajkrXVVCeS4HLvX8FG4FeieFXkVCdJ+CiebTvPwMa1lFuBot4xFcJtc//CxDAYKkHkKDvlM2gPIARo3++TLEbhfttDzShkc2YK0BiDqBL9lUz33oHu4/rwFWwB0IQmR9EtMQIUWfwMvgp4xkhOThV/ApU8ZXy6EcV4PAc/Eof6C7VCcYoZGLnAzVtFtXQUnRmdhRrzcpLNHSmxAlwvZbZx3GXjnxvYtyt9GKUZpKxgzm61HRAQ4u34XUaz2jdpvpxFAQIod6NMF1pPJ/QCyI+hOGQjDqt51AxqCHYRFq9fHmsXjitEbTOcNW2It+nn33cg7Qjl5cd91Fdf2XaVAHMd4dKyPDtU7iql5pIqTLW93+o9kE5sKgUVMxy87N863s1579Wq5E33xVL+UVxKD8gns0eUxtcUaCd20Sbbb6Ai4j5EB5GOBLUsWWLL7Op+3za4boHNoTAxaQUM428ZXpXLF7+cKk4alVwk3UFpcLG+kMtjigR2xPRGHLGbdnWefy9VI5BzFD5XRdgrB580LEb6qVINj8XsGKZShztQLLOKtGujda19D55oAdhlMPr1iHFeiNwMIzxJf6h/JMFrMcs483yKQk6OylALY6oMkIxGUa3/kSMBsiIxw4AWG7rL4BCnxfy116M1yDYHynQeKPGAIwnLekG5XYAQCJ/URn960aM1wCAIyUFQhrRZl29ndtnDBswxaHrVfzher4iiSaeZ30dAFCorfaM18zgQsRdbRRd/mBH2zxBVSU0/0/v09cJeB0AACO0atzdPX+NgPcBYfFp00TaUXOaI4AO+9gCbsafkTuB21bNUO6Uu57LoDuUJNkTAl4B1/Uu5EOxyu6JOw/e7oUFWgqME672ajB3Exg1SkzDJlF6D90TnCMAJsIPA0i7L4RUxRyGdAnf3wYAe0CKVwe2Mrn+VfN/dP7O3UupXD1bfEex+hz1n5ICs3MJqY41yQOm6FFkHgFUttRGCth2+LDVZV5Lsi+R7TXbDkvNuQQTVfArPkZRBlK13zBgikmtPftolppf4DaotItDfrFFmaAmY0L527D5hFkudX6YfZ3EgA9wgekQM1Gh5Xp/QkgysnFDZ3KjXxO0qi7M9inwMOsUbJ5FB0NQ138XtpiXv7WD4OWv6dtLxzbA1fQojjObSSxRwPhTuFZ1lENnXfrQBaCCYGb5sBij2feLjCbj6eErj1tfOF1m/xWr7Seqj+F/BVyzPe3Ou8y7kA0bOtPPnbPPMLaWAvICp5bh+TZpua0GhQomwuYUq+2HrMUqo7l4hgaq6/r0d3GxEoFdMl0R3+Au2RJlSfsSVEmgZotZIBbA/W797XW1pvoB3cVs6rrdRqo1ZGoZLvGfM9ERHKH9aYpglrwAdgFH33ZqimprfS9mrs7J5zfTg26Dp4sUAKABGNuqAxex/WMWYNDWmQzfHwCbhZKYrrone725WLQvnQohBVwGZ1diukCqjTrlJaiAGkgPDcz6HMiMbYBWYtEhpusEosQonwdt6itxU8C5mvPYLCK/V9tIDtXYV1+ClNsKAI6Fp04ia8Ixx14BsPvcHlj/MMLr9o/dEKX6piVGEIYMXUjr0ep4EaV1uQAKh4RpSyPQ36BetCivqyu3KFdqoSK9empv2342eq4Lo2xf8KBGSk10MhKgLwBUCVNjpgcjqbhBtdxZ/e8CAGCoFQQtVyr5GIEhQGIyE85dqS4xQBK4pYar3FGvdwWABoEWq2Zn/N2uskh12QC63K5hZGirKusRuRuZ2Rc4r0mMOb5WVu1UCACgaE9PSSL6zLjVVQMfdtbMV3X6f1Sy2u82/6lvOoQAYZu2BHsmGABQn9e/8VdiGKfziXwQt9VElUXdV30uxH/SpvFwGUPU3WsZdgCcCFfQpD56YebwILe0ofGtpEDFt6aYr+rmpUVIwlHrAUIsagnZxlZl2eMAapKjFQhgadnOqiZHDzHqq2AyxSsVftX3Azj6TFz7h5I+ffaNeV26MMp05ZQBpBlgO4KXAIQyLW7b/eY1c14AjEzuW8DwjAkW3eZQR0r3g+Tci8ShWzPCRLmaN2ix8kde7NbStXm2mHuAtvBzF90Xl1AMZSWPR8yAKm9yeS4AwHUzKSZ4fNzRQ8RrkLmOIH10YhmC9QHQwqkDnjZ7Mvo1Ue0MWJcMOv2MMsrajOhCvdjrLe4DVQAJxLzPM2CEdk2qLnqRrCkVu9YzieftngAwgl62BXrZPiILJvowzn4PfAq+wevrOFfRbr2hjfmuINUkGNq0EU2YqI06sw5UC/hptz4lAj0a7aCBjbOeISWY2X7zXNkYXF0T3Vja7ECbc97Hto3g49zN03WCREC3stObw2BfUKtxbG2xX8Mp3/SGFQhK3x9bVIxfuFjTYlZH5WLZiciPNPoNGRxJlg8+cuVBWyC19zhc/VijRwKSQW10tSbWBFTLUEvBZsXUpo1t46ebTORGGTAUJIxv+ebsIm+FVxnU5/8rwHwASzs1QBFe+fyUpYy2god6gLboFK5dVFtdeWe9Bph0HydxVGogtBFXtxN8I4pjgwAMY62OJsGgIRrRJuZvqgHuHNQDvIGLIINX0z2DRGZ4F8591Yhv+fR9JzXjdgjaT6IOFNGezKGJ5xKpzHVUC5T0qb9xA21EKYIGZiBvIdtgPMME3CQYMkYj+pICNsCAhADpUJ2Z9A26KNviGj6vyig2x8hdSgRZkQ/3gZqBZ2MyKDCaFJDHCAKsH0f3nsXbDRpP/nQMKaAkxAUuMo2ieGSI+HgEaNjhljKB9HDF9tDlj0yKq1u9j7umgzYKMNfV8jEPP99mD5jXTFfw6nJixJ67Zwnp9wLQZUuf7uS2gR8e08gU8FEFMGJBEsC9XMrnBTylA/j7MU2EAr7xeNDZwGhX0tLBulLY8d6hq454PTAFGsXj09M86mdrBkoXq0QYZrm3rY3xmkGBJotGckMuPc2nXiEUjJsy5t8bcq/uiUagwYApnA4fH3BvSTMFulypNowBAljkqSVIkt7AhRywmMPctrW8dj9GEXsF5fAgYCaRKsGjXPXsy0sbvXKxY+GNDEOWUU0Z63u/2xvp2P34OFCgv3V7vowu3wfxgzi7NzA2VbAozJtCKpbALckuM7sQ95B/hRdxDMxvtjqlEqhFHTbGdbyGcYQo7lmmDH0BpIGKF/QMhGwT9B3Aoem09/UBENTKnNBAAFUTR/ysAJRPBMm2YDhDMEXjblZspxsLE0FgK9TW7aEuh4Ulas1eXK9H0y/mRgpECkQKRApECkQKRApECkQKRApECkQKRApECkQKRApMnwL/B3BStkT/LJ8NAAAAAElFTkSuQmCC;" vertex="1" parent="1">
          <mxGeometry x="504" y="421.75" width="72.5" height="72.5" as="geometry" />
        </mxCell>
        <mxCell id="GEuZke-Skp5Tfs3HKP2n-10" value="导入" style="edgeStyle=orthogonalEdgeStyle;rounded=0;orthogonalLoop=1;jettySize=auto;html=1;entryX=0;entryY=0.5;entryDx=0;entryDy=0;" edge="1" parent="1" source="GEuZke-Skp5Tfs3HKP2n-7" target="GEuZke-Skp5Tfs3HKP2n-6">
          <mxGeometry relative="1" as="geometry">
            <Array as="points">
              <mxPoint x="450" y="391" />
              <mxPoint x="450" y="458" />
            </Array>
          </mxGeometry>
        </mxCell>
        <mxCell id="GEuZke-Skp5Tfs3HKP2n-62" style="edgeStyle=orthogonalEdgeStyle;rounded=0;orthogonalLoop=1;jettySize=auto;html=1;entryX=0.25;entryY=0;entryDx=0;entryDy=0;fontFamily=宋体;fontColor=#FFFFFF;exitX=1;exitY=0.5;exitDx=0;exitDy=0;" edge="1" parent="1" source="GEuZke-Skp5Tfs3HKP2n-20" target="GEuZke-Skp5Tfs3HKP2n-59">
          <mxGeometry relative="1" as="geometry">
            <Array as="points">
              <mxPoint x="460" y="225" />
              <mxPoint x="460" y="300" />
              <mxPoint x="519" y="300" />
            </Array>
          </mxGeometry>
        </mxCell>
        <mxCell id="GEuZke-Skp5Tfs3HKP2n-20" value="" style="shape=image;verticalLabelPosition=bottom;labelBackgroundColor=#ffffff;verticalAlign=top;aspect=fixed;imageAspect=0;image=data:image/png,iVBORw0KGgoAAAANSUhEUgAAAIAAAACACAYAAADDPmHLAAALUUlEQVR4Ae1dbawcVRl+QlRQwKQaqwRNbOCHH8QPRI1ojERpbGyEYgUVmztzJTchUGzvnfec7a3KxpJgra2mtpjanbOtBqsGiDTeGsWmqaSkqbS2AVG0BpMKbdSCIVBEfrzmzM7c7t3O7s7snrsze/bcZDN7Z868H8/zzOycMzPvAdyfQ8Ah4BBwCDgEHAIOAYeAQ8AhUCwCQRC8RwixIgiC7xPRg0QkiGjx9PT0m4uNzHmfVwSIaIKIHiUi7vDZPK9BOOPFIJCB+GZRnBZCfKiYSJ1X4wgQ0W87HPHNxM/5bjwQZ3DwCOjf+l7Ij/fZMPiInUdjCOiLPSJ6vg8BsBaQsYCcocEiEATBHf2Qr/cVQuwabNTOmzEEiOjH/QqAiI4bC6hfQytWrLjQ87wP+r7/tn5tjcL+RPQnAwLg6enpSwrFy/f9Cc/zjvm+z02fp33ff9DzvPcVGlyJnRPRf0wIYHJy8v2Fpen7/p4m0psFMPvd87xVhQVYYsdENGNAAC8WlqLv+491Iz/ZPjY29oHCAi2p4yAIqgYE8JtC0vM8bzohN+Py4MTExOsKCbakToMgWGZAAMWMBfi+fyQj8c0/BQPts/JmnM9TWMICdzFhCxPuZYEZFjjAAk+wwDMs8FL80d/1Or1tJmqr99H7ahubcf586IiI9vYqgiAInqtUKpfPR1wdbeojOS/5uv34+Pi3Oxo2sJHX4ioWWMUSe1iAjX4aNldpHwZCjUxoAnsVABGtNBVHLjv697wXAfi+P5PLUcbGLHADS4Qc4K9GCe8kIO1L+xRYnjHMts00kXlFIITY09bgfG/Q/fxeBDA+Pl43FRsHWBgd6YRDAyO9vSCOMqHCARb1ml+lUnk7Ef08gxB013Fpr36M7ef7vu7nz/6+Z/we9BtAdIqX2MQCp0pAfOtPzAtM0Vnh2l7zJCJPD+/qEb4mMZwRQuwXQmwsfNAnSUwP8mQkfVYkY2Nji5P98y5Z4BqWuK+EpLeKIPl/PwuM5c2zub0me2pqqpzdZz3Cl0cA4+Pj083JZf3+xypewxLrhoj4RADJssarcWnWfIeqnR7hyyqCXhJjwqdZ4JEhJj8RwZMs8YVeMCj9PnGP4GAHIfwkbxIscDETNlhAfCKAxlKPK6zBG/PiUfr2elzA87wVup+vu3q+72/zff92z/NyXwyxxHUscNg68s/2II6xwPWlJ7WIAHkKt1hM/NyzwRRuKQLj0vpkQjAy5CdnA0Lf3eLSEponMBaojhz5iQgk1uXByrq2I03+WRGM5sseLHDnyB75CfnJUmKndUd3p4RY4kZHfsvdSsKWTphZs02PjDnyW8hPzgQEzxqi2yXCAn92AmgjAIGTLPHudtgN/XomrC+I/DMs8Q8WOMaEfSxwPxO2R/HomPT3xjq97Vjc9kwhsUrsHnqi0xLgyjwO9OgHNAi7mXAPC6xlgscBPsUC7+QqXp8WT5Z1et/IhralbTZs3xP5ms8HUAjfyBLf0LThCj5h8Gg6HT/yVeUAn+EqFhYFhPYdxaDHMhqPjJ02lqfEkqLyMuqXqziPCY/2BYzEwajbuAYf4SpeZTRAg8Z0bKxj1F3cRsxzh4CTi71sy8P6drjB8IoxxRK39UR+A8Aqr8GHi4m8f6869miwq1cxyCEfLuZNeC0LPJ5DAMdZYv0wk95ONpEYJL7LAv/KjIfECV6Jt7azWfr1LDGZKVmJB1jiS7xyfp6/LxNQvAqXxDe//pAJG0IxL3/0CxpXsIBlx0e1X4xOjwGu6NfXsO7PhC+ywC+7COFlJlw5dDkyYbpDYru4guLeai0ZmlzBTfFbSekXjcN2r4CreAsLnEgRwBFrn48zIKroglniyRTcWD8jacDFYEww4aspSVS5CveCaBcK+G4sSL1NPkxnAZZ4aI4AJG7tkrfb3IIAS9zaguEJDnBhS7Py/atvZjQF/qyNXbpBoR6PIzw7iyeh+NfCuiUfvSenR7okDnZr67ZnQ2B2VFFiY7Y9CmwVXc0S9hUYgpWu47uYR0qdnO7ascDvSx3kEAenseVpXFPaFNi225glRJoFvlnCsBohWfnqU8nQLi3G+sGJkmFlbTgOa2updYk5BBwCDgGHgEPAIeAQcAg4BBwCDgGHgEPAIeAQcAg4BBwCDgGHgEPAIeAQcAg4BBwCDgGHgEPAIeAQcAg4BMqCAK/Bu8oSi+1xlBbrIuv12E56kl+pMdYTLSaBuuX8IMACX58fywasMmGxLgljwJQzkYJAVG5H4r0pm8qzigUecyIwz0dca+l35i0btsiEH8Rvsz5s2PTImmOBhyNMh2GSCQ6wbPZ1ZomnmXDZyDLXZ+IaO9YYJnUFp4agp8VVXBTPzH223k2AZX1iMXK7zzmQGq/b/3poQGCBH82qNlGvrp7pSsR05VBjlFoiRuCOrjuXpUE86ePZM8BZEbgiUR1I0gW0WOBIysFzQhfe6rBr+TaxxM6URBJRuDJxTZTFdRV2tcWL0NPUu00uBv9VFzdkgZfbJiXgCkVWcHl8utdYJAfH3KUutlnBgsEzaMBj5ilgR6hUrIY1Kp/fmKSi+6QUEpMGqCjGhC50zLrgcTt1n7ve2mLREfECN8fzCsw9ys/FIdn+uC64XQx7hryy7HFWUBvKxesJJSoYj6+H/p7jQGgIQOI2QzQUZ0ZPetD3hNCJGCSu5gm8urhsunuOrn0adZIP5Ca8+UygJ9mo4rzuHoegBUss6QuMZmAEnmPCXhb4DlfwOV1+vSgIeCXexAKfZcLdcRm3/xrL05YpYxJydAUxY+DMFYQupPy3eNav9dHkVHqOotW4NPHd7zKa61Db1BNfNWY+u58Fjs9jPnZNGpUQwBK75w20VlE0/tdX2XoauIeimb4EfsqEejS7mMRG/fxC9NHf9Yxjelujze643vExFuh+pZ7uO7mQy7e0ddo4LYK4jvDJAYsgHwEmycxv62RysFi7jOffGyZSBhfrqDxXyYQt7ixwzsjfV6w96tMSY4EdTgSzIphKw8j6dSzxPScC3Gw90Z0SbHPve3C/u/kv1MzFRvh8J2xGZhsTVo/cmcCRP1ff0Zh5kUfjIH078ueSn/zHAtdHAzeDJGOwvg6zxHVJvm6ZgoCuh29lN5GwgQUuTknZrUpDIH4+Ln0SxcEetf1e9D0yVJM+ppFR1LroJoxAbWgvECXW6dvhReFXqN+tW7deFIbhx5RStyultiuldiul1iqllm7fvn1RnuBYYIwF9g+NECTuY1HiyZ3ygN9L2zAMlymljiuluN0nDMOf1Wq1N+SxzwLXMiFkgRdKKIZTLLGJ1+KqPDlZ17Zer/+wHemt68MwfCUMw9wjYRxgUTxB5dHChUA4xAKrOMBC68jMm5BS6t+tJGf5v1arfTKvr6Q9CyyP7/E/NTAxEJ6Knx24IYlj5JdKqZ1ZyG7XJu/PQRrgvAYfjYaWCfuMi6Fh807tI833SK8Lw/DGdsRmXV+v1+smQeQqLmDC0uiJH337mXAvC8xEU9sKPBG/wPoSC+jPM9xYpx/knInaNm5Z3xXZqOICk7FZZ0spdSAr0V3aLbcOHNsT0t09pdT/uhDbtjfQst+3bMfLuvyUUle3kJiV7LR2e60DyPaElFKrDQrgedvxsi4/pdRNBgXwF+sAsj2her3+DlMC0KODtuNlZX5KqVMmRFCv16WVANmelFLqFyYEEIbhYtuxsjI/pdSVSqlX+hTB16wEZ1SSUkoFvQqgXq+78rI2CCUMw1/1IoJt27YV9oq3DbiXKof4WYC0QZ60dYdM3AQqFQAuGGDHjh2XKaUeUEr9s80Z4ai74h8RpdRqtSuUUl+u1+uTtVrt4+6IHxHiXZoOAYeAQ8Ah4BBwCJQagf8DTA/NeSs5lLsAAAAASUVORK5CYII=;" vertex="1" parent="1">
          <mxGeometry x="288" y="186" width="78" height="78" as="geometry" />
        </mxCell>
        <mxCell id="GEuZke-Skp5Tfs3HKP2n-35" value="" style="aspect=fixed;html=1;points=[];align=center;image;fontSize=12;image=img/lib/mscae/Cache_Redis_Product.svg;strokeColor=#0E8088;" vertex="1" parent="1">
          <mxGeometry x="558.25" y="166" width="54.76" height="46" as="geometry" />
        </mxCell>
        <mxCell id="GEuZke-Skp5Tfs3HKP2n-36" value="" style="verticalLabelPosition=bottom;html=1;verticalAlign=top;align=center;strokeColor=none;fillColor=#00BEF2;shape=mxgraph.azure.mysql_database;fontFamily=宋体;" vertex="1" parent="1">
          <mxGeometry x="641.75" y="161" width="37.5" height="50" as="geometry" />
        </mxCell>
        <mxCell id="GEuZke-Skp5Tfs3HKP2n-38" value="" style="dashed=0;outlineConnect=0;html=1;align=center;labelPosition=center;verticalLabelPosition=bottom;verticalAlign=top;shape=mxgraph.weblogos.mongodb;strokeColor=#0E8088;fontFamily=宋体;" vertex="1" parent="1">
          <mxGeometry x="498.04999999999995" y="156" width="41.2" height="60" as="geometry" />
        </mxCell>
        <mxCell id="GEuZke-Skp5Tfs3HKP2n-44" value="" style="group" vertex="1" connectable="0" parent="1">
          <mxGeometry x="278" y="342" width="98" height="98" as="geometry" />
        </mxCell>
        <mxCell id="GEuZke-Skp5Tfs3HKP2n-7" value="" style="shape=image;verticalLabelPosition=bottom;labelBackgroundColor=#ffffff;verticalAlign=top;aspect=fixed;imageAspect=0;image=data:image/png,iVBORw0KGgoAAAANSUhEUgAAAIAAAACACAYAAADDPmHLAAAMLElEQVR4Ae1dfawdRRUn0fiFoviBGjQaUVH8jiDS+MdLhOqjfXfP72wXtVqsRLAWxJqCokYRiRQjRGMqaCUlUoGkWD9qwAhKEz8ojRBpJamCEbCIpFWwVUlqTGqOzF7eu3fvvTtnZ3Zn985LXvbevbNnfud3fjv7MWdmDjss/kUGIgORgchAZCAyEBmIDEQGIgORgchAZCAyEBmIDEQGppGBJEleSkSzRPQF838OEb18GrmYKp8BrCeiewEcGvG/k5kvJqKZqSKm687K2Q7goRFBHyWGh5n5aiJaGVuHFisEwNmWgR8liOuZuddiKqYPujTljoI/XxQ7mHlNlmUvmj5GW+QxEb0ZwAEPAsjFsI+Ivp4kyaIW0TI9UAFs8Bj8XAT59odpmp44Pey2wFMAv61RACKE/wC4aOXKlU9rAT3dhtjr9Z5Vc/DzluAQEf0GAHeb4cC983Tz1w9yGXEx81VEdEzgVIUJj5lPZuYrAGwz/5uIaA2AU8ogDkEARiQPMfPHymCe6jJZlj2XiE4DsJGI9k84w66bRFZAAshbjQ2TME/d771e74XMvBrAFgAHJwQ9J7K/HUdYgAIQ3D+fm5t7xjjcU/GbkADgfCJ6wDboA+XPG0WYUgCPDNjvi83h/vuTJDluFO7O7wewCsDvXBHKzC8uIk0jAOkVZOYVADYDeMwVxiI70jdRhLuz+wC8H8BtRWRU3Le0iDStAHJbWZYdzcwfAfDjivjGtSKr8vo6u03TdA7AT32RKGdtEXlVBTDfZpIkJxLRtZ58+MT8ujr1Wd6KeSKtf1ZJoItIcymA3D4zL/Ek5pPyOjqxzbLsSQB+5Dv4APbIG78i0nwIIK8HwAddv2buzAsjaS4B/LmG4EsrMLL59CkAEYJ51bzOoZ97Zmdnj8hF1sqtw8SLfhM/huBt40jyLYC8blPPzWNwlvElL7M5t9u6LRFd7YiEnIyx20kE1SWAHAcRrQXw36ocENE3cput2QL4SVXHyx7PzJeVIaZuAQgmAImLBJRRTzZl/K69DBFdUzZ4ynL7mPl7AM4F8KayDjYhAMHGzCcAeFjpa7/VE/xlfW2sHIDLqzo64vg7AFyaJMmpK1asOFzjYFMCEKwzMzNPJqI/jfCtH+QJv4+9x9Fw4vQYIrpwggNlHZ1f7g4iOssF0CYFkOM33djz/bP6HOylwEPwnQU+Jz8EAQgWByII61IgqnR45t/l6ozPA59vQxGAAxGEcykgoo87DP6Gubm55+cBc70NSQBLliw5EsAvtNwFcSlIkuQNAP6udWLecfsAnOk64IP2QhKAYOv1escCuG8eD1b3A8L/oI+1fgdwgxZ8fhwz32jzKFfFwdAEIL7IGMOcC8X20ip8VDrWJHFYKXbQwbqbMaUALqxEVImDZbDpIDclv+9Zvnz5kSWqcFsEwKsVo2oXiKXu4AsDSgEU5ha4ZFRGGWsvBUR0jksspWwB+G5JhS4Ien5ME8GvIADvLYDBpr0UbC8VNFeFAJyRB1KzbSr4oQtA8DHzVg2naZqSq/iOtSMp2wDu14CUY5oMfgUBeL8E5KQDWKrk9obchtetpG0rAcqlYKNXcCWMK+8BarkE5PArtALH5za8bE1KlzZ1+x5mfokXYBZG2yAAbSvgfagZgA9pz34iep9FnLwVVQqgtktA7riyFfhOfryXrbYDI6RsFqUAar0ESPCSJFmuONnu9hJ4MWry+Asf6SYA3QXged6AWRpuiwBMculfJ3A7FI9RI6IsaRourn3lS0T1PJ4MQy7coxRA7ZcAAU9EV9kKQNLPCh2vshPASQogos6fVanXx7FKAdR+CRDfZeo5Be9fcs4bEX1VAeSQDKh0DqaiQaUAGmkBxFXbFDJmvqUiRcOHA5BcvKHrzYR9dw5ban5PmqbHT8Bt62do5fc7ZTnLslcqCTvXKRBHxmQyaKU/oQV6JB5HVD1uRlKzFITdl2XZs50CcWQsy7KnKPwZSXaIthxR9bgZAJtsnWz6ff8kAuocsGLLnYvyTqeqVXb8lJqxa1KgfP1ORB91QXSoNpj57U64A/B6hZN/kz4DJwA8GQFwlO3dtYKHJi8bbl68SeeCreNEtNVT3JyadZzJ3GSwB+u+zRlRzPwDhQDWOgPg2VCVlGxbXuoqL9PVO6NNM9tFmqavcwbAsyFmfkVdgampHkkvP8oZbcz8oCXwPc4qr8lQmqZvAfBvSz8Hm90gvkt6uVPazDTnNs7d5BRATcZkhI4Zam7ja1BlnT96E9FzFGfFpppi5qUaSVohotsVfjcphkdlsmznhKRp+ioFEV9zDqQBg5KSxczfMn0gf1Hw4FsQkiewnYi+LMvfeKFo2bJli2wdZ+bPeQETjdbPgCRyKASwun6ksUYvDMhIXYUA3uMFTDRaPwPM/BmFAE6uH2ms0QsDzPxJWwHEBZG8hKIZo2bFDqu7WTmmGbSxVucMADhd0QJc5BxINNgMA9Kc2wpAnp2bQdv+WiWfX97mmQ64RwH8AcD1zt/wlaWKiBbbCkCmgi9rP5Z7ggEJMoCRL5yY+fYnStf0qdfrvVEhgB01wetMNRYnmr9hX0VsZln2dFsBMPMDRbbivmIGZmdnnwrgTgue611LCIBtd/DBYlfj3iIGAFxgEXx5Iqu3FVCOBu7WOjdFkXO0D8BuSwHIaKvC5fAcQVpoBsC3FQAvWWglfitigIjeZsutlPc5i+oQTmXi5K4hQ3HHEAMAzrMVQO2PhGmaap4EDjU+fekQ3eHt0Cw82dR8gJpVLkau3RteKOpHJCuia5aQkckka0fLzJqVMW+uHWiLKmSWl6zWo613NuKi8j7gkKSUNQK4BZWadDPbjraLG3FNe7cqy8M2AjjwSonorYqzXybYbG6FEAC3KkDvbeSaFbgANGe/rDbWqFtmaTarJksEI1mrjQIPrHLt2S9TyTfqCjO/DMBjilbgQJZlxzYKPqDKlWe/nEhuR/xoOJG+aYUApNXoxFgBDWfzj9Ge/aYlrf/xbz54+ax8dBEBHKxrOZhBzCF918y0Yk649cH4wcy/VrYC3wzGiQaAAPiUkrcDaZq+pgHIxVVWXCMoyFnDij11t5eZlyiDLz1/YXWsZVn2TAB/rODQVA0cMTfP1l2+ht8Hsyw72p0UHVmquDzs/hDWDHBExUQz2vmVRQBE9OmJFTRRwCwa8UttKwDgniZw112nSfS0fndieN0ts4XXjbl0fUmSvKuCAISUW0tX1sKCFYMv/JwdvNsAvlJFBHIpCd5JBUAHwQ9uhvVCGmZnZ4/QTCI1IJpWzygySEzF+yM58w9I59ug3WC/W+S0j7sWbpcEiWCdLAnMwZnfjqZ/kA9NbttAKyCO702SZNGg7TZ8lyRNABsKfBon+qLf/C745JNMZr7GAQFCyhk+cbq2nSTJqQDucuD77iCf+csSZlYT3emACBHBlUmSHFe27qbKOWry/98SSD9LU344q9csxaLpMi5qDv8JYF2IZ0Wv1zuemW90JPbwXvdWUQQRfcAVMcaODE27QF5BV8Hl4lgAp1RdMX2QGyK61gW2oGxos4cGyRn4frfpiHI3D25J1ojoNAA3DeAparWs9jHzFSUhtK+Yg+fhQjKJ6F8yB4FkKvvMNzTN/BqZjNF14I29de2LqiViAO/1RF5fHGZa188CeK0lvAXFFy9efDiAzCzU+HufuIPt5FnAiKMvQqpPMgdsHzDTqmwDcB0zX0ZEa838vzMy5Q0zf1hmP5NkVTPwdYtyBHRfhAMYJu0P/x2/o9j3zRgRyF39JHK6/vvpfVKm7YO85auQTtZ2YewgondOW8yH/DXZRFdOWUuwPuh+/aEo1bDDPM490nEhyPuL6W3yJ+lI5g8AsLmjIvh+UJm8k4LR5O9mWdo9XRHCVD3iuRKOWblL7g3a+qSwD8DlcfBLRUUQ0TGmh02ddl5zS7JbzvgQO6wqhqLZw83TwioiuqXmgJZ93JSM6DNlksdmmZqC2mVAJRF9EcCuJsXAzPcC2NiJfvu26gbAu4noEgC/qkEM/2DmrQDOZ+YT2spZZ3HLmoayqJV5p7+FmSUbSZuMslemYDV9Ap8H8I7OEtd1x+SGzGQmLTWdQGeZDiGZh3+16fGbkZSzLMte0HU+on+RgchAZCAyEBmIDEQGIgORgchAZGCYgf8BpSV8niEZcEwAAAAASUVORK5CYII=;" vertex="1" parent="GEuZke-Skp5Tfs3HKP2n-44">
          <mxGeometry width="98" height="98" as="geometry" />
        </mxCell>
        <mxCell id="GEuZke-Skp5Tfs3HKP2n-23" value="原始&lt;br&gt;数据集" style="text;html=1;strokeColor=none;fillColor=none;align=center;verticalAlign=middle;whiteSpace=wrap;rounded=0;" vertex="1" parent="GEuZke-Skp5Tfs3HKP2n-44">
          <mxGeometry x="19.90625" y="52.996249999999975" width="50.53125" height="17.1875" as="geometry" />
        </mxCell>
        <mxCell id="GEuZke-Skp5Tfs3HKP2n-49" value="" style="shape=image;verticalLabelPosition=bottom;labelBackgroundColor=#ffffff;verticalAlign=top;aspect=fixed;imageAspect=0;image=data:image/png,iVBORw0KGgoAAAANSUhEUgAAAKwAAACACAYAAACWX4KVAAAVUklEQVR4Ae1dTaglRxVuQVECiqJZiAoBNVFBGeJGVxlxJ4Ykin9EmSBZqAsTFwERIcEsFSL+kkVIAmZu35uE0QRURJigrkJkngZMJIs3r7vfPH/Q9zALMSgj36l7blfXrequqq6q7r6vC97rvt3VVefnq1OnTlVXZ9mcxiGBC/tvzFZHN2V5cUu2LO/N8uKBbFVdzPLyUpaXV5t/1T7dE/cvZKvyLnp2HJzMVOycBABMgGxRPbwGpQJIFaAOvwFiKvvoup2T28xQIgmsqjNkNYVFDAfOLcu7BewLZLETsTlXM2UJAKTo1vNqv9mdb4EqAYCr/WxZ3Dplcc60x5LA8uCc3u8cAqhKnbDwi/2zsVify52SBGigVB4Pb00VkOrcBtA6p1MqAXS1o+j2LYDaBO+lDG7LnE6JBCgMRWGnBD6oMxhtaTqefdvTgFeyqhPp/ptWVQ9khMHmtKMSWBV3TMJPtQGqnAcx4TntmAR2FawM3Bm0OwTYXQfrDNpdAismAaINfPR+5ZD1zZZ24uCdZtiqX0OYQTtR0J4WV0Bn0RflfRPV2ikmG8F1TGe2/QHUUO758rvZongmW5SXd8aF4CWM85TuDjSCxdF1tA6VlwtiylP+2zlXAotoDs7tgOZ2nAUAEkCEXycszjTWDOi6+TDXLs2LaMaEeZp2Le8a7aqrMKDrNygjGooHMshqTgNKAArQvpZyisJabg3ikjdoaXyw7rXQc83uhiPwZ7D6Wt1jp5VfGMAZjcK82NwOtdMB68kooxCwkDYJ4wAbC47Iy5wMEnAD64kIXVWPUCgL4Sz5b1X+NML62BMKmaELxeDPRuFD5Dlf3W2QsLgMOenpOtFen0GrEacNWAFCCA95OSGkRa/DbF7H9u1O25+DklEvwGrsRkfjXx83ZMSywhHyyjVLMqmBG+k/pufkcnb+HIpGWEoGGzPdDdYTbfgmjZWr60Zj0Slbb63aG0DsZxbVIyzexlHf2E7IELTTdKFRzuR/UDd5cG7zGrWIkzaVphOiDVhRtpzomURvwcKyIgmwNvlpV/DweWW5QWYmvxUL4aGbLn4mPctGAC3vtd6Awg+sV7WvjuTlhU7hdgnf9j65HHhfzNhdDg9ME20wGjQLSLFs/SQLXAFhNLr50OlQNiSjOwdIqZU6Wjcdo92W9SoNqsi6VWc2roR4LaZbuCYlul5H/fpuNB0NrjTb5sdaC7K8xkGYyqPZNx4NWMEQ3jXyn4/f0/KicxlUQcM6kECLZzZlpAXPnrX1UWmP83tPREL2z24aMAQDQ+JTHy0kMgzCTOXBYIwyAShiUKPvSkwMNa8LhasMmnwp+Vm2yjhi5RWSGOGqrT7eb1rxRcH1eHXIPOvPEWqCDrAZ3SWti0SyKZ5xAK0YZOE5G8Mh04WVcKNKYYAKBfuDFQIi92MNFgYs4ouy8GKfo94xDbbQhZvSNp36mCoZgPUGdQCfuwwvmUhIf538Q0f/VM/wiXaK0MayivKEG7Fp/dU+CSOtOyB8aHOQPb3V5YYr5Ihp2HpWS+19mnHVvQyNHXmQyBWwnOnS6Tc9MpUayU8NuBkFrKOati2AWeHIK+a56zyqQnSCDH6t2ief0adcciewmLy6m/42ja9ntEEddEJWnGQ6UZ+sB/Jzi1ucXQC5TD4fNLwlBNDHT61BBYZkAbIgXcCKMnQNyK/7atLGAnc5Ni1Ve3nosmX+wYd9r9JeNtOs0oPfnDgPH0lmQXrMJm0yj1x3kiNtQ9mzxbNwcNQ55KqllPPrzqEA12d05Yhrej/OnL+pGOSDpbTLv+2zkx9uEZC3K1/QJvz4mi8enAIweVlfF2XuWdK+zXcbTTyZ4gVSbG3OvoltAWj5oYPv7F/JNFA3pJm3bhMGWq9qRdryt92zB1ubwlQQ6PJug1WWg2iANuXoypavYeO4i40Qo+j60f1jW/tmTxmrV5Ibicyn8VwIALM9x7TEzZhRc0OAVbNffw9LywFouTpRT1OAbeDiewLkspL8z0MBn2nTH9vByjIRfIUArSqPPZpWhdUDQEUjFfWIAWN4K6szTsxn4whLKlpSTbSLPxEDrFAilCEn/3qE8PXAqHm2vQ/Z2Ob1y1fHM2X+Teeyq4NGjtBfnwkZljvGIZA5Es4RP8cR92EN/Xgzy7sTsAQAbHuuWMG2uJwqNH8QmQkHPfCp1OQ70BBdmLtVVuXCv0GXAEY7D5zf9SgaRD1dSV+eOTi3AY8qF/zGM0I+/r0cD7QASJwzWGUXAI1D8G9a++ovk1bAgihTK0Qrsk2hfVYolwUn0yALzRUAoa0BKcx60OSmQLlxoettuh/bwXUAyLchq3JETwvdkw7WvZtsvXGdAduky41Htd769zZ/hAGaw1esKj+kA4sMHPlc+DKhiOVyTjYtm+vq3wX7Wx2Wi3wEXcKnY5rDHIXVlnsC+VzUwVYPwFHdOJlG9/M96urFAOuERb9l1NhdMBk793qbsttUzCddrVHXFfOz8rE/iJqEMqOqdaeeQBmlcl6747bS7Z7T04dnkfpYfPf6ebAjplBjLDAXYS3RsHm0rtMxY8CdB7M85bK4fDp2gRUPsslvPKj86A8iPfGqdY/lH8sC8jmHOOL0Lga5VGfESD24Va3rk90mNhrbFlxMbatugo8MTc9soGYr4K7YK+6rcTlT5W7Xt12BGP6xG021QuXnIFRhkfT35bx9z6E3JGEkwro2NW3NEBXqE3pu8seWNybvxCw70jWBTULk6/SA4V9Mi4fuR0667kimc8hz0BnTyjBv8Gkh81g9mqjnZMtPBX86lwc6IQxEmJZlngkDtg5yVzgrnsVrLsaOZ8XNDZUFZnMkwFJPE6Y8U50ASFywXt0Kz3FoSYcZ6MW2pzbx1HXdad0lE0soV/7pWlxX5bb3Vb9523eKCwxbOjkfi4Z/xziyddUBJ0Z9XCYwoOuRN/T0GgB361GJ47U/AFDqko4BZrDvUW0kMf2jvrTy8ywjmlEyhAc5r+9RWLJYPqsZB9CHPABj+oGN2NYVdTkNkAAWNcXunnlEinqFjxw+DMVCD3VkGUG5ocpsloMwVnqwggbB07YOxJhi+3qTbnNDsM3nJFC1a4ZiYgpO9ZlTtGBbwbXlY8DGdJPa6k9/D/t9hZ+KVfmg3nZ7LaO5FcCacoK1s4nbqpW6/JZdkKlYV/CHgRDSmCMZLnroymuyul3Pud4nwOr8EX1B9XRc3Jhf3WBkiz4l5TPdwl2q+dHLdfr30ROm4I0mjoRQu9dLwuQjb2yrKjMOq8rJvmENDwDZ706lTFluu3oODFISFrMDtBGDwSYBM1hxFN3O8GA00Spf3wh2YnTLPIzxvDHoT+E0uwphqoBFbJTTlHoGV/2kzs+uFsl2jICVCQxDH3qR+KEXKHIz8PLczic1GKZQHxsBOsYM/vsKQwascFv8XQKxoDjh7oPrlfcQri//83OyvpvT89rVN0MLTA5rQfG+fix8n5SDRcht9mNlsPU/h2u1lXwBEQ3Yki9IgHXeIE3sYj1ESExeuzs6uUaaLo6Gg1K/X68IWyWKqdkyJ7sFBFrrGRWxzxaet60raD6psQl3pL+VCUrfpEBbzwFsWVmawSJQdIS5EjGMlVlq6h55C7DS7NgA4TgGFtMdZsB4egGvdQdYuHykSYL1W5no0vjPZSqXFdf32Ii/rQk0g7bewXBooHCkYGg6+sp/6OfliRjGp/UxVVioKST9l/Z0oJWZS71WtElz/f7bDFj/3kFdAGUNVGQUC1D8K1cV6vZbD1p5zakcVUgdFdDxwv737MP6YwYDZu802ABm4y9vg5YXmKAl8tqDsVi0jUsQbV2sPxB0DWxs13pZV6B8eMBepRfiGJjc8mBZuSWOaQKE6ZvDWn4Ni3XKcnQ+jsdyNSMH3PUKlyXN1GuXNZKtQ1feOPdP6FWWetJkHHKx51WZ2XJGKyysdQzUr0XZM1PP1ct86AZhLmWGzMuhGHZZQpbdVhasOQ88+3+NJ74e9bzUkR5Zv87nYwIsaJFTamDoBV0rmLszHLvyhrsvNhsR6y6GeecrBC+6MKasa+tzFBSCoBBlbAE2wn6kfehkPzul1efp4GFCj3Vj7SM37pmsQdmWcRSDrnXEQAbs2KyrLPSUsWDIJK1FDwNSBrgstzYcWt8bK2ARJWCmx3DkQWDfJZGuvAj91K6AGHBhJ+xxTLO38RMcrED1mCwZW9gxRQagkObkRfht09uUrrpsbIkgI8gLkYu254e6FwWszPxQTKn18kgYilDvDfEb/iO6Y/ZdbRtS2FmwepdB9mdZb3wULkOdbwhZ1XWebCIaTF/w4xiC4A0rNtAsEqwVLAM3HFXQ9r4kPikU/iMWXSNtuA9hG4ubP4u6uXGrsgv6ewwWjd0BMJZa6KiPp1zbBOsy2MK6B+IFwA3UANmPbqMR9+DmoeHVVs8NeK7PoS7UmSwJxz4uU11CkAGbaioWQNKBAMJfHd2U4bsQ9Nmf8l6v7Ztki4gGIQaS/oMlV0AIF0a4CgQq8nnh90p/kIGHH0yyW+9r4UpXkPxDjzpllwAMhbJKuoaiAyqBtLzLC5i6OvgaQK8mNEj3XsR9WlMAVhgiXcOU6UJe5AFtDUAzuPHlGvyltKQygep5TICw8tqPxw1hyNah/Tn7ngGWBH6onKCA+MsWL2h9O/JzLd0F6Mc1yT3VaIDmyoQpP1pVKGD4l9P8ZlMo0ELZUJ6cUHbaefljrfsBmmxk7wPY2o9teX9KFsqUzkOBwx+s665rPVhh2YEu4fvZW1KmAd2urivENZcBFJcX5nghWx6ca/Qm4LUrAgFQuyRYVKYXwN25tCrfT8plJoc88ghbFrLourtHvuj2AXBdF0iNUvPZ0qF4xcuYcoNSJwlkulxBJ1ttuQ5ZppM+X5TfJ/p9RoyyYEOd60ALAqkr54EBwik0yr2PPklkCk3RMzTSH9/6UdVVkYEmy9LFJRDWVfAKfe5cWpS3ZXn5n2xVvi3Zt6hkZZjPRQDeV+A0qKkeTrb3lpkPvTvDYHqi/ECDRb17cNzI0/ZD/vLPTlrXvHqU/J1l8U2yYK6Cj56/eEDbxeuURtb04Fzgb7LqAdeXb/ZLl+UPsnz/Qw12ADS1t1OtceOB9Q854sHl6/JN9tqi+HHtnBdF9uBz1ySdJXFT+iUxsi9uocA+lIoAPwYxYsRfr2pyKzcOILtoIL/88B1ZXr6SLcoXstXRtQ0cofE1BpzVvjY8hodqt0fwoobvGgVP9cfy8BcbsLJwV8WXyZrx7/kYB8yIYCAtq29tdLCsvqSFEsAIa0kWt9pvRBl4Ro6jHjSjNZbgvpYbz4t5+cJGUE1QPksl1jG8OApr1nn66kDv8JOX3pDl1V82elhVT3dqE345rKcAsDTFun/WaH07Cx17hrz890ZIWuAUn6XFINp7m/0ETh/IQsmDB1u6MJbqFowdS9HpW1S/bQcrAFn8kuhAKCWUkuZy6gbO/mVe/GlLvueLr0THwGQqWJbf3hKQCUjL8pOzLxulNxFvwS6rc1pd6HZ2nAzAQhK6qr6gFZAJsKvyN1T97MvWltEkK5frPGOVF78z6uPpK9eEVP00y8rLJ4wCMgl8jhiEBSvkjFDW8sqt7bo4vHGaIAtF9YPPvYZifSZgmq+/mD32xzdZrSYylxFe6VOti0NZefFUO2DL20OpfprlLMuPdQjIDCoE5BEHHHqB91RBKtONUNby6COdulgU908TaKGozst7OoUkC7ZxXv0zWx3e0Ln8rfFMlMGKuVFNoW4OZfE0eBvNy/LxUKqfZjl59Sl/wMLvqn5EjM9hLv9GQwtaDm+01MPz0wRaKKqf/MfbLQVlVgjN289fAPSS48a6Hn7P8vn/hlL9dMtZlStLYelBuyx+RsxjSrCtO5vvbcuPZPbXd2Z5+bK17B4r3z1dsIWgvK9bACAuy8/TAIwWYcx+qiX4xETBorrfMr8A/PLw5hBqn3YZmHLtZQGL32c/f+m18zoDh8YK6/roC2/OlkXpJPvV4T3TBlsI6vPL781yj00TZJCvyq8TKbNrsN31y3Lic1rzWn3NCax4Vt2nIYT+J1lGXn7CWXgsfDpWh5tlbPLniRp5HCzQLj9H07BXX+W1OceiPD9JfEUh+vzlO3uBdlF9g+iaJxTarSysq+saDm7Ai/LXUXQ/2ULhI7Fw3I/Vhu+4W5mfbD4vSm/HSp8bNf7Gm7SleIuWXi8Z6Lu0vMgFwHOXLz5Q8oeNjOeTtQSWxRezvDp0F2j1FJUAC+KjDJdnEP/1SfLLeC71hcpLi1yO/KfE8/LIh+3df+aJK+/JMBXooqjHq4+TYFIsPYQldUnCTRn2ZcSNda1yJ7k2dfA/F7ZPX97z5Z1Z2xpNFuaifIiEI4DR7sPxM/2O9u/jjwGs4JV818sf7gFWIdfzf37L6QOiK8fL6tPZsth+m5ZAVx1mT/79rVSkvFlDP0B2gd5+IzOs1o9LSxetV8l/hoDy6oe9aVkdvM9Vfac3f15dny2Lz2V59R3alGJZ/itbFJ8hgcCvTAUMW5cgJU1m3tcfgTu8IcsL+2lYU3m+/vvpRa2Gc+p2E468bQHL7+WblJ/iOqITSPJeA33qXR18UKOB+ZK1BOCbNXYiSTBBwKv024ikpXsJaGkDH6/IWr18bbitPKvr29ie73VJYAhgyN8JMNGXIlrRBlbc432vFh7TsKayebxg4nu+3iGBIYABq96V4DaYlJ7i+tptOXvfxVdneflcMFoeevH1XazP99skkNpPtPVfhwXsCYWxIDdsShesgawnZ9r0Md/rkEAwZVj6m7ajZHTHqWnj+ngXFwJs9atAdDy7CR92qGS+3SYBVlKao9tnfoawsjyjRWA9vDnLK7y+/TcP0L6S5eXzWV49nOEN5zkFkAB8yTRAFcF5DhHZkp7ayra5Kxf3X0ffLsBbA3l5e4ZtNLHYCBtGLw6+mj1W3JGtrtyWPV59NFuV78ouXny1LZtzPlsJpAYsj7pt6UO+VK/uyJbVhb45b2IJpFywjQkK1xQ/7HZC34BwpWvOP5AEsJluih1g2rrbLtZj+bIo1ybE1kXffD+xBGD5MPsU05+VR96u7IVuVHAz+tDjSv+cP5IEEHKKA1yxgKQP2bqdrd0b2MkM1D5KGOuz6CYBENEV+39anQHlGh0wyaXPrBxo8PGhTbTM10csASgaI3wo3d2fdIu9donBpweYu/8uqZ6C+/ArGcQAkQDynuIH70Wxai6WFnTNaZbA4BIQPm27u0KDq+rM4LTOBMwSIAnAVal9bflVlz1yX2afdTCg/B/UMkK4gWP7iwAAAABJRU5ErkJggg==;" vertex="1" parent="1">
          <mxGeometry x="632.22" y="327" width="94.06" height="70" as="geometry" />
        </mxCell>
        <mxCell id="GEuZke-Skp5Tfs3HKP2n-50" value="" style="shape=image;verticalLabelPosition=bottom;labelBackgroundColor=#ffffff;verticalAlign=top;aspect=fixed;imageAspect=0;image=data:image/png,iVBORw0KGgoAAAANSUhEUgAAAIAAAACACAYAAADDPmHLAAAQ80lEQVR4Ae1d7XXcuhHdElLCKyEdOB3EHSgd2B3k/cl5lvzD6SDpwK8Dq4OoA6sDqQPm3L0eARjMgAAJcpcr4Jw95HJBADNzMV8AuafTKIMDgwODA4MDgwODA4MDgwOn08P04XQ/3Z2+Tv88PUw/zA9++zr9bbDrFjjwr+mvp4fp0+l++n66n6bGz88zWG6BD++Khj+m385Cf5j+1yhwGyBoZ2iEA0AIgv8y/aeL0G1t8e30+/SXA3DinQ1xmeAfT1+n/57+mH5PPrh2Pz0XQPRzaINrwtfD9I/T/fRSEBjV+sP05+l++nyCT1BT2O6r2y4cxVEuyAGo4nnH7vEEQS5V27jvy/RvFwSIIqB9RtmZA3TyfAePqr2fYOAA+mYB2ufjzhx4x91Bhfsq/3GzGQltQP/AjhTup+EgbgpLquO/F4SvBfNSbe9bBo7Zfj/ZvsEIF1s4WVmXDEdCRgu45vtjZS9t1WCC7qenwpiGNmjjqFObnniNoL06T07LfS4jhPSB+XMTDdRn5AdoZb3woaa3d87KDuJ0zkgegN3XNcR54SNRA4cvJHFwD4Qhn6Wh3xJOcLx+LgLZyT3Hs4SGq7lnXvhPV8NMhqM/ziEi8gUcu51FhINYAgGjm7BgxXWMu6uRyy4DmRM+mHxNBRoIGicuELIXLnogKIW2uKc2exmP43DnJeEjjXu0jJtHD7KHcQFg/LyGOLcvh6M/pnH2nOv1Qqw+fp69/1or0EHMcwbQHFI8baGjCw0cuf+QR6g0Cv3bibZOCx3fX3dVfRjTFlqG6t0CwW9n86EFjfyC50vg+iHLlwkZPAgbDpMlbH1tP0cP28PgW5QctLVMZzJL0wiHL48cxN7TNKTAOYwWoHe8dBvWPsIHg8FQqOA9So2q106u5UdsoaW60c+ZHkKZutkez4x9hA+CsTcA6nbrgk2oKOWsIXiQ025pAYz76gqcHd+WxwIunecM2JJQJJK2sqkU3J3iyWPB/Pm0cyNL4Bu+X00BofV78J5/xce53YPD10O1wdYCiDWx8/30cxO7T2fSWiOwFo+ez5qhJNDcDLyUqu/3G0McS5gBrVwxC9uwbLD08fY56+K+fxaZseVMApgBBEYAGBNppB/w9Gsi1K1TkM8xXVOXyVJkztyP5bgdsxk5+nRHDm1uSogwZq6/mt8tRpXu0+PTdUWNA7QQnHjnup71XYQvoKQah2/kq3qrHbmmfSnQerFiz2IK1gun7DAIK2X94tpWAJQYmKvdb6Xq2W8AF4VO7SftxQmg7KbCBWrSMHmWtlPoou4nX/hP7gyhGsxNRU/hY/QWyOqoSmuJsPSswwbUpUXAqcO82vbgsMbjuQgAPOFDPULVWQXXregA9/Qu2sSg39biC5+zD/SQpg/ZIpD0hd/l2UOABuZSAABBLikATgyApe0s6ft8DxCXDkDUUTkmte9bxoS5wQcmy9imuVuS3z1NldKNmfg582+kITwrgOweAE6hUfPRHCCrt4z2nI/L2pFxNh0txoIpcyqcM0Gr/mdXWzQNyqhsjdOoZl6C8CEktvH66xxPCAmYcK3sr9AEhYiGmu/pDSxU48sE10O7mYTPXbSFOC98tJujdnLV5tw4an7nDBaB8Tjn6Uu7oFMKxi0FzheAEf8uv+kjZj1AgEKBvSb3USMsA8AacOtxNn3PbQ+EWGe/84WOZcS3DDjMWAIAjFtSIHAyvS5WR30ARQpne2oeOSGW8eAiALBmVG0caztTdcwUJi459gqXMP45lR+PD3VjbYP8htYaAEDt5InbxvlFAGAt3QIUNYVOT6yOn2tuW12Hajjud/mMaxmMBoslaAAgNi8t7e8OAKtDiyiPCK3+lxLute9d184SxrF3YRIodxipAZaZJEsem9KVz6RcpXkDgOrrZYu9Przrltmq1Vpem63X4Qhq9Y824E9Z12va3xUAtgDrHD8QYw12KeE1zNF1YH9TAKbOmK7f+7sHuBYNqsfUK8up2zW/52q0ffUpFQDuD6GV2WnHi/TAgx+AmXfpggmwBgDgX8rTZb5NFR/y1G17Z9az9N7MqBpUQ6VdmVU5LszgOEqovO2tmjbJccj5VqnHCQaZIq0u6aP7tlTWVhswdN/wyFMa9ncE9ZjWmkA9KTfTqFbiZ+ngNWoplOUrapqp3nfLB/HqHuE6+J8CetmkrKIVszTubI2q4cCt5+S2TQjdGgByjTYtjiaKILBCKKjyNcVu82UbAn4N9PYAoJ+l2Ggns4W0NcKXe3OnrH49QdpoOd4SAOwJtFFYmwuq3fv3BKVDM5iZNV6x1w+u3xIA8tfg1SfkSjwyf9sSABaSt4rP8zzGq0nvtV+0IqmteHbmxZYAQAf5AlE/DRMLM49ktukn7rP3OcNxvZmmz7MT7li3BoCOMLZC824xs8vJdT8getI0MDLbyPbLcLcEgKXO1kYYMm4c+YQv3hKehrFk3LpIJu4Hpgz7/pbmRuK2rHNf+DtosS0BkCeF1u8PgDC4U1mryrAOAAD0FhZBBaD1AxbA4At/Q8cvRuGWAOi5PwBPIFubVSiYVPjYIdS7xP1gHBjP2gIw22o/bDJd28fs/dsCIBUMiG0pmB1Q87aKT9sOAnp2H1Zp6VvXDe3H/UIjfDtvBuU7B+rMBOjiVvK4LTnfUfggMgdAP/WZRwDTWX1r5urvgUFlNU+h4Onbz+c8gG6n13crxxAAwfcWhu8QJB8MwTsCMMtRcA6tUTZfOwsfA7MAgGs9CojPN2pgUcN+3z7DIMyoOcG/nnfabJVU0rTnIabMVi7QWDxMARHq+9e30Vyaluy7Pfh+eXsr1SxMwGyAKqQ6rHnDyPN51y40RK8CEHEM9r49miEfkAR5+gyf0Fd7hLPck6Ym3tgA6Lv0WAJBHZPA4L7eN5hE4QXhWprPDmVlRuNFD/leijqa0Ab+v8gGXpMQ11T2HazyixZa+yQI9L49YaR9hA+xJYMsHwUPdcalZP85ebTmwjuIAFiP1qez+RLfIO5r9/MScUAxhNaz1KpLqMSt7Xtp5sI0SaEJsISJaxB2AC8ApQt4vCWIdX/V30GYHYMGgqAdtihgPmcPZgo/YB4At5ct1MKLBcnz729jIXDjTS4Qfp59vEpBWwL0hR8TSSD01gLWeC5xrWzbZRKk/xVIjfnReUHWDmnbHozyhc+1+nxn7zZaoActa9vw7bQAQI4/z6ErM5HBaYy1xlXY9BqGeGpfZjqOMWE4l99q2j9SnVJ8r3lQ+n4Y/jALJagOR01ArgX65QWuBSCeJuQEyE2hBwDNu2uhLxsHCQtCF4IsAqy6VoycdXKgCxaN5Mnns/NHJ9Xy/oWHeAHmhWP4Fn7bMa8f5uln7sGcrUOzFnrW1rX4ARrjUA5aAs4iwIDrMBk4P4y9j5mkN2jO7cyhxyto5xFO0K0U0YD58UadXo14JFvmir4HzIqTJHP3X+vvvvon0K913KvGZSU+5lQZVWBuB+e0x6qB7nCzlcSJNcGhbHstv5j6TIVZs0HDS5jswSQAFCDsWeZmP4CwB209aapui55tatdrVLoVLy/RAmA+QMfPj7fkCnwL+Vh7AXBfj8JJoBM5ech3swCgSs/fXw9gzJXcH2hLfZL5KfhitVs+7/Oot5UEo0bAekQYWw0/5vh1tb9DrVop0NIs4z3pzGllkuWDxEwvn69/ysfSfoiMUHSE1Erb1QrbGxhRHxAvzIc5iG0uNYZe7+Z9cw6k7tuafdJv+Tj/ulbdl/5u0xueuHl3AACDbKZQuMEe5yChsNrUP2yqFjLX/PEOnFSzhHpwWJmV0wJt+e7TGXYYafOG7++i+MzxBL909utn3fnQA01L3hdUcKyJlgrDo087sJZ5Wtrn4e7zmBRmYiog1G8p1uwXG5szvt+2aI8uKwFGU5fSebORgCU8eOhaDdoAaH9QEeYkbSs88mQJyRpf6zXvv40s4Uvb6RhvOBcgBFtHAgEvQNbvp8PsaH+uz0oiyexH/5YJaNUwMR2Yyd6SN3wNPl724fyQBh7UwAdbwq173pUGiJnYUzC5gxdmv/SZ7z1YthgDMC2PNFL1jzD5XRfLNrc6ZZbtR7u62Nomr6fvi79T5XvRhBbu/PdYS8X9vJvzHADLdgTV2FU6YOkaBTQHzNFc4b12nkL3XftdRwhzY7jJ3y3bDKHAXrZoAs10z65aziDUeakvjtGb9fwTSzq2SPPm+f4wNvzGBzxrQHeTAreI0tmxwDA4U3grx11xllogwjWvWP2hH6sAGL69hzDntYfV7rgWcYDqNV84CkAQW4oHJL7/8qbxEgc+Bp0LqOxYsT9tCvINKL7wmTmMSBinazlAZv+p4ngRfNuxxrZaWoOA+36e1Qjj7M0cF3q0ei2Dj3I/bHddosgDRf3/Blr+QK514n76ZQ+PIo+LjRO2FRECwZCra1tQ7bOzHgRD+BcDAzqGyoawoN7pxIm3DXDA+16+mjcPAv+Pqy/KlNF5Pw5A4+SmB3/LOr+Dqd8oRktXwQFomxHeXYUoxiAGBwYHBgcGBwYHBgcGBwYHBgcGBwYHBgcGBwYHBgf6cgBJH77Dl+8Sts6RLpaCc6tOeo2vdKlpW+7D8nZNAqquf5uWmA6hB0eufmLHU/pOQiy1Y69EaX9F3M4hz8F0pHy5zhCv/uGcO3hixuGc+wvTBz2xQCVPIcmOJGmb9XXbeP/v7+dPmobGOwP9HVHSP/rSi2LSv7Qrx1AvfdKKy/DxdnrQ9PFth1S8Za+01f2QgrcGHRhFYYGBXsFvur4I3rpH1wW44gKwcGFLgPJSnHnoS7fp9R/ew5T2GW+mAQitEh7wTe+16h7+mmbongAA87hbKd0d5Qm1BQBBuwUhQpPE9Hr9BO0U7j28oD0CYobgvAQA62EUj4noL8xCmeE2Q6kJpA6O9s7lFgCEuqHPIFj25Y1dgDJMgEJNYGoQlsdEAkD7DEEYqulsadpi/pL+IUwpqbnx39JKrfR4s29xFX6cjy0awBJA0pj6ohmufYC4usy6eDwQRFys/jUAS0vbWgNA09y0tx8zzzuPGT5nAiwBeO3iegsArLZhcuJi1dEAQJ+eGYs9/ED3y0n/kUXc582fB0ZQrXvMAyMsAZQY1AIAtDM3Fqv/HAC+H0PV7u23RD7g7i0cLNF1U79ppiMJIk/35sdPmZC0mo6ZswcAMHvjcYKeEogtRzblAZ6IuovJuO3zlHhoAT7OReHBiYs/abiGe/UMjLm1FgA6Trc0ACONeIxlAGB8sPsh1g8ObcwLvHuhBO6YzkOfx0TjvDR7LAFsCQA9lpr+52gQYUG4aL8EBIDg5su1AID2Wc/G9FH2OgC07WyeA0IcRt4kGFoAYNnPXhrAEq4O0aw6un9kAJcIDUBA7kHzQ5uhmwOBJlir3Zhgqsx0lmoBxPVbfIA8RMtfm1MDgLh/fQ5AaVDpOi1j1vce8vu1ACBepMGYrFm8FgBc+i2/GjfXcn728pAC14PeFgDpWjtml1XyLKBdbz0AqL1KWkv3AZNy02VbAKTmwgIAQ7L4bSRPbvilhYOxl4SpBSe0loSqTdGcydB9HO67MEWOfX2AMgCQcEE+XvouCQaM7QUAmAKraDDOjcdq4xDXQKj/zmL+kWNMPEDBl1JqlQ5bjf8owH8ScNWt3Dby7vz/giB4/uEzloS9Iv1rP4HA4XjxJpVSG2ibTixTwcx4Shbxk3qfIeqkIag3tkNeZ8jDP17GrLI+serDuVUnvibMr2lb7qtlXk3/aBN91xQ4egRDnEF8PG+REyDXtDPqDA4MDgwODA4MDgwOvCsO/B+8GdigfvWpkAAAAABJRU5ErkJggg==;" vertex="1" parent="1">
          <mxGeometry x="649.25" y="428" width="60" height="60" as="geometry" />
        </mxCell>
        <mxCell id="GEuZke-Skp5Tfs3HKP2n-61" value="" style="group" vertex="1" connectable="0" parent="1">
          <mxGeometry x="480" y="319" width="120" height="69" as="geometry" />
        </mxCell>
        <mxCell id="GEuZke-Skp5Tfs3HKP2n-56" value="" style="rounded=0;whiteSpace=wrap;html=1;strokeColor=#0e8088;fontFamily=宋体;fillColor=#b0e3e6;" vertex="1" parent="GEuZke-Skp5Tfs3HKP2n-61">
          <mxGeometry y="8" width="120" height="60" as="geometry" />
        </mxCell>
        <mxCell id="GEuZke-Skp5Tfs3HKP2n-45" value="" style="shape=image;verticalLabelPosition=bottom;labelBackgroundColor=#ffffff;verticalAlign=top;aspect=fixed;imageAspect=0;image=data:image/png,iVBORw0KGgoAAAANSUhEUgAAALUAAACACAYAAABN5Ci3AAAR7klEQVR4Ae1dCZBkRRF93oYX4oHgrXjggYiAigbeouKJgoqhcoRhgIqKIh54jK473VXVu7M7LOjK5YkIghKhYLjeogiCBIqCiqIhxooH4oEoHmlk/V/d1b8r6//u6Zmd7s6JmKh/VGVlvspfXUdmFqB/ioAioAgoAoqAIqAIKAKKgCKgCCgCioAioAgoAoqAIqAIKAKKgCKgCCgCioAioAgoAoqAIqAIKAKKgCKgCCgCioAioAgoAoqAIqAIKAKKgCKgCCgCioAioAgoAoqAIqAIKAKKgCKgCCgCioAioAgoAorA5CNAC9iJHHaYfElUgplHgBz2J4uvkAWV/+eQxUEzD4wCMJkIUBtPIIvrI4UOik3k8ObJlEq5nmkEyOLCpEL3eu0jZxogFX6yEKAWnlKj0NxrX0MOD5gsyZTbmUWALNY3UGpW7A/PLEgq+GQhQAY/aKjUrNjPmyzplNuZQ4COxx3I4h+Nldrh2zMHkgo8WQhQC3sJCv074TlRG++YLCmV25lCgCxenVRehy3J58VqyPW0AQ+dKaBU2MlBgBzmBeXlyeOpwjseW39qVCnJYh9qYY4sziCLL/p6DNZRC68dlaaWUwS6CJDDWUnFdTiUFvAwsvhL8j332AYv6BLKXJDBntTGMeTwJZFWbz18c4aUvlIE6hEgh8uSimawJ5emDt6VfF8o4Q9TNdA8Hk5tHEkO52bKcm+f/E/R1GeKQCMEaBF3T658GFz380XcJhAhi4slBfQ98Ho8aClKXKH961CvporA0AhQG0+qKFToOc+PiZHBAUK+kH98qS4ZxtDr9bAIUAuvSSqrwUeqtMjg08m8whBi5LwOr6jWrfeKQGMEyMIIyvemKhFawAPJ4l9C/vH01A5nVevVe0VgKATElQ+Dp6YIkcOxIyu1w9fLZTz5A2jjCal69Zki0BgBYeXjL9TB3SQiZHF5A8W+jgzOpA5exyshTIssXlZT7jCpTn2uCGQRoA24B3VwABlsTK58WFyQI0BtPGdAOR1+zhZ8ZHEgr6hUy5PDo8jifwPlwni8g2OqZfReEcgi4MfDHRxMBidRoYDyEMDi5Cyxotf9BBl8kIRhSlz+x3O4NRlcKiq0hYvz67UiICJA67Gr//m3+CxZ/DmjVP0K3sFbRaIjvCCDj2bqPnUEklpklhAgh73J4T1k8Y2MIvUrcRgChLSD54wLM+rgmAwf36I53HxcdSmdKUKANuKRZLGh4QQur9A8TOjgfuOAh+1CMgp9rYZgGAfKU0bDj1Ut1pLF3zPKk1di7p0Lr5eOV8I2thsHTLQRD87y1ClWRMZRl9KYEgTI4N5kcV5WccJwIpUWk0XeeNmPHG4/bli8k26qXn7WxpPGXZ/SmwIEqI3vjaDQW8likSz2pchYadxwlPbR0i/Eq8ddn9KbAgTKMbSkNP3PHf5GBqf4teU53HK5xc84HDBfa5e7fqU/oQjUbjUXP/vsUXLgSopYs2P42ZXkReuaMASG6qktriCDD/DEbbnFpA7eKw6JWphb7vqV/oQjMOKY+nPUxnOXS3Q6A7cgi3+Lir2M4/jlkknpriAC3l2qmWFR/xi7GJpctVwBH8ngnaJST3Nv7Q1qWtiXLI6mDl5MG3DfFdSHqanKKzabc0pLZ82enzDOTZCr53BbwUiq+LgWcOfpaQCLg8jiRLL4ZbIRDH5KFp8ki0OmRugVEqThxDHVY19CDs8PbJLD+8L1UlLfWUkf1DT01rQODyljO6RAlZ6deuMC7r8UYGetLLWxG3HcDIs/JDuNqpIZ2LDpQhZPJIuvUQevGgduZRgzOazCAnYaRz3bhIa3rTX4TSOQq6BbXL3SS1LbBKQxV0qbsV05rr1CwH0rtfGsUC3ZvvAHTwzPl5pSB28V6ucdxTVLpb9NynuFHlRUqWfOPV/RtdZtAtYyVVp2Kt+MlOvkizfjVlwdGTyWKuPxG8bYg1IL25PDH6O6+9t4AQ9cJrGXh2yNdVa/cE0Uv4U9lofT2aDqvU46eHGQVvIzDO9zKW3CXXPv43ccRFJUaoNOnHfVX5PF+aIwTZQ4zsMWZA4vX/VCTwCDxCsTss3If+pEIMLNyOJDPGbmvGSw2YdYECzuykA5bG+S7sjW4pF1da6K9z5ajyRE8fxofxQDH8fAa5oG3xWF5jgT67D7qhBsCpigeewiYm3xyzoR2XbDl29hL85LxbyHFfa/5LyB1SYf9CbaZKEO3i3W6XB8XZ2r4j1Z/EQUQohoSSYxqeCImHO43aoQakqYIItni21j8M2cmH0TP1OskmQiov6THL7tt83XYXdymcWC0tM8V/c2fUct7CGCZvHnHHNkcVi3rA43clCN/I4MDu9iPPhr+gmJMHH00zi/wzznpQ6O6nse54mv2VIwvo+vV/u6dXYTwOA6CbTw3Nvhjmm4QfN4SHeYU6zh3jHUsxIp2ysT75oavKrcjDikPAFr55WoP1UHddASlatU1Go5cnhhwp7jbM43phWuM6p1rqp7MjheBK34Ol+WY3gpww1agweQ9XHhTiN5bfz3fqLk8GZaj3vleBnlHTWP/Hk2md5qxCh1hTLeTpqHaqn/yg4huWwsvCMCzZD6wOgmuSx3Beeheexd097pCWLcU1tcHupblWntzqHBF8bNODk8jSw+NiK4p3HvuVSeaAF3Jof2CDxcPGrkfC6XDa9bKM7psWxkcUGGx/368rbxCLK4SsrPeWnRu5Q1UdxsnrjeVXddXcxPApKIpjmqILUfUX+PkAN2oJdqyhM5vHIMXtxD/QSTwUIS26q8BjaWgwyuE8tF57fQAnYii0vEvJF9ju/NOSh7cULADZkyafwdzo15XHXXNRORnlAOhy6V+YbHLPTqrDZ49V5YmZH4LI+NOH3oRqzW27tvpNhUBKZpKtfrA/9ksaPIq8MNFHYaeS7g8NVMXvGM8mj4xcdtNLFB+R0ZvCjwuCrT8gv/rQhIrwEbnxWSEjR7Bklcx/DXjWwfOHhig5/+porXy2fwwZS84RnbQDfCtid39xBPMni8WNbgym4dFmeL+YZcqShj7i0mwpxd4+cADo8K9a7qNLsC0gM7NORrhhWGXDYmW6A7WmpwJYceqONpSaEJBjGo8tpVxJgPamM7svi1qHApumt7SkNtvDxT9stcFzmcIuYxWIj5manrsreWN2AGwX9XU4AajSWLwCyb2C6bzVf7VkUG664qFN9ngxXWTkqd33ziMebjeCLllcVix5t4E4KdIup5uIQSXt9kcUS2bIj9HK+CRIFpsnYYFidnsTU4pWkbTW0+snhMtIWaUpz+Z+362G3sW5dtVFYWDgh+Km4rAVseBVF3XDFHyn9MigYrfJYHjsU8h1unysbPam1jHAbGrWTBH2o/buHe4biYfura22yE/NWUP4Tqs969eoEHQEvDc/kY4B5oRUNtzBu3kMHHM8ATT9xC3XUpuYy9CfPl8IYqjewWM5dJxGSu0gj3tIg71Uykrqpaw4lHtzlsCXRzqXcCqGJed9/GFl6uzNGduXfk8IzGkzoOg+WwQwqkMi6bfNbIkKapvMmT/UAcTqryQQafEct0cHg1f909WbxepMfKVpmUEYc6SCvhiXV18XuykK3l0nQvojn1Pkpiyz5wZHGT0CDVn9NzUkSyll4dtFJl6p6xOavIU+XIM5r37k5VXot7N9p4k3c0yeKvIg+DSv3PZN4Oauck3uQ0rbhpmYq8R9dhONPvayL3VIEdcLwlix8lG3QJZ2Nzg2SCGPad4lo6DFf5DPf7jtq41HD5zHvfS0rZ4Hi2GpPTIEd/yhs1LTxjVNlmohyvRgiK2Q+mw9djQMr4Fv15QgM3mGDGtKrXmR3QvhNXqfB0H+ShxlyzWl/1Prv8GfXU3vUqyFxNHfau0q3e18wHfp9pl6/RetylSk/vIwRql6VCg0W7TBlLsD9FpEe6JIMPCQ16fSBYbrQMKjTz2sFRId8oqQ+jG2SuprFSt/FSgU+eINd6Zmd3eg3YhzE9tGGe2lg/imwzVYYc3iI2UK9hNwRQMr3ZJ0OeUdOMkTsFmqW5aFqpl2gMVW6oSLS7sefI4W0CZtcEPnNpGTohXU/xYefXwC00/G4OYH4nOX5GDdedMIqHV1o0mvXneMl46Xh7Yc8ru531PrZ+xViiUnv6Eu127wg20aTX4Ts5+cK77A5oG0eWfHCU1H75wj3vtA6xZBrqnblUHKcykNG4Wozo5HDZUkDzu42h0QbTbs9Ei9hZbGyHNy6FBy6bob1/oJ0x3jot5MmlZPErsZ5yMkgG96xZO+8zY83VN3Xv2FKriVBliLF0z2DhhxalN7KUhzc8au00JF6SfpGFcv+VDLpeMt6DZVDpC54S69lSfannfGCQqGyRp3Xmw/ZuVSna8TOxDpbL4J4hb2lGK+Nt8Y6QdyZS70XMnuHlz1md0JmxcnfjgVreAUAG2eHYunpS77PjZIuB3o8s0isES/y18LbI6Q/mv/HxFRmlfG1KvvhZ1uTUYiAsArEdSJonbgf+4JNnlsd1Tvy1VxCHL3SBaGj0nVXq0vG2z4NZBjpp1SYBy71w1qg/sUxILmMwX4YLkOpLPWcnY34u9owOPwvlsqsvBs8M+aS0xuT0p9VyHF9P/GXgNmAv8SgEQrX8RN/TWn92X3pyYfCCOuHIIm0XwqGqgnWbw0ndj0VWal5aEw+Hj/ngU6HI4pwMzeSKSnmGt/SLMZSPHa3Fo6lcTSD2GEnJ5fClwHeNh37t6QCl46/E+3mhnjitjbDVwIAqpjcR1zXH8jKA13LjpYSpDRYerYv6XiHV6OlnvvdL1rkO9ykPz5Qat3g+j8cly+dWQJgXNvtsYPhTKsu1wQqQLDYnlbrVC/JCFi9J5uEhUcJEtcp/zcFCm6r5w30DvA4Keacibehkyj2xt032dg4ckLA47iyvWG3sFkASx7JppeaNgi1kwUHE31gOi44tjz+7XlCMHi81c4Hsak2h2Jf6IVXCS73cQOr+qvGhniyjuKPp8JYuBgZvF3j/fsiTS8ni80J5/hi79aRokMNlYlmLX4zrZNxU3Sv+bEyu8T2FCkoa2RHTCdg+A+hg2UBjlLTBz+kIrlRpHg1uDA1GFpLrW3eeIE7cHM4MdHJp9mOsGSaSxZNr2qCRX2WOv1X1boye3KHxN8cCZic4oyiuVGYI+40hnV6DXNX0oiCnqDCxZzdPzNK8N4oaKpQteGqw/EoW78/SiDqiINfEpmTxvKyw6YaoNnBxz36HlTEpGRw8NvoSLxyAcg0eOkwjiONgqY7q89I1KrOqsZXmcPPAk5+fVGkU934nMORLpTUmp1tTZVLPajx1biRhLpKiteqfZYyN0sqbbpzLefJYFbYbYXOwjOy+P5g3zccSwwP7w5ea1lXNV45jxVWNyta3+GHXDB0YT1qPXcXyDudXMZfuyfoVmzSWhXzfkspO5HMyeDpZXCiCV23UcM9BAx2OSyk0AyH+1Behs3jrml35/zNkvRf6ydwYoqmSwZ7kcOaQ9V9N5doyFQc7DSqKw8eDIvho/AGvahpNqEP+akouY90X1VMtl7rP7MAWMji0U+Um9lm5ocEe1HVe5Bzg5CKyWFO3nZ75UBYDUKXnOttpn0YWf0oo2D/KGfz65fqJ9L0Yhxwz4krBL/yqj8NLA9+c+o8r9vyOrkM+b0cdPe8rUxmuhTJxyqdt+TIhrdCK8za57tKr0Ony1eDXo0k9qyoPe1J7g/SOj/R5FPFylMEBZa+W9D+UBBDjuDm8RyzDKyZr8DC/nJdYWpPKjeu5341rYS9fP69tR/Yb46pD6UwwAiTFNDbDO7lOMAzK+rQgUJ5xPTje5HFldCDPtMircswAAhwqITE+Dkq+zwxAoCJOGwJlRNGgxP3pPHaZNnlVnhlAgOaxj9BT30Tzzc/xmwGoVMRJQYAc9heUupGj6aTIqXzOEALUEU6Rcrh0hmBQUacJge5ifmKRf5rkVFkUAUVAEVAEFAFFQBFQBBQBRUARUAQUAUVAEVAEFAFFQBFQBBQBRUARUAQUAUVAEVAEFAFFQBFQBBQBRUARUAQUAUVAEVAEFAFFQBFQBBQBRUARUAQUAUVAEVAEFAFFQBFQBBQBRUARUAQUAUVAEVAEFAFFQBGYZAT+D19pVOD6ZbusAAAAAElFTkSuQmCC;" vertex="1" parent="GEuZke-Skp5Tfs3HKP2n-61">
          <mxGeometry x="3" y="16" width="46.67" height="33" as="geometry" />
        </mxCell>
        <mxCell id="GEuZke-Skp5Tfs3HKP2n-55" value="" style="shape=image;verticalLabelPosition=bottom;labelBackgroundColor=#ffffff;verticalAlign=top;aspect=fixed;imageAspect=0;image=data:image/png,iVBORw0KGgoAAAANSUhEUgAAANwAAACACAYAAABgFgcNAAAZb0lEQVR4Ae1dDbAlRXXuVGn8CZQkEAUiBqIRk2gQ1Khgki0TEkESxRSJMWggxqBRIkn8w1TixsjK7u3uuTxAWI1RYhCzJoXrGtiF92533/d2QRa0YlaUGHYBRZNFQNxQ7iKVlzpzX987M3e6+5yZubN33+2uujVzu3vOz3f6zE//nGYspkMPAT5/OhPmcia1YsJ8nwl9F+PqOtZZWMs65oRDT6EocURgGhEQtx2XOprQy8z9e4QJPccS83PTqEKUKSJwSCDwTLnjKSwxt3scLe+EUHfDbUcfEspFISMCU4cA1x9DO5t9+nGzla1VT546XaJAEYGpRkDqs8nOZp1O6o1TrVsULiIwdQhAZ4h1oCrH7tKJU6dTFCgi0BgCnW0/xrq9E1my8EqW6DeyTu9ilujfZ8KcfOzaLU8l80n6m2o53Kw95aDDCN4KpHpr2nObmD9gnd5Lmdz6E2Ts4wVThsBc/yeZ1OczYf6FCbWLCf1wwDn+m3VMh6RFoj4ToJnvMCl7CpIYHqKVpXrzYKjE04sLnUmJvpDJHc+Zei3Tu/Pc9mezjlqTCnylOqyW0BuWzmSJ/kQ6jiT1o0zoLzGur2PSfJhJ84JatCd5cbJwCuv0Lw4at6zhZ/OwMgrzV7UdTuj/ZVzvZlLdyhK9mUEnTEd9iCXq7Swxr0ttCnZ1/Zp6OnTmf5FxvYFJ/e8rOu1i8ARPzKWs6quv6P0OE7pPx6i3DmuC9uolvfcwob/IuL6/VCFpbqgkTHfxrFJ62QYJjjdNSZo3MGluDcqd1cF3nqh3odQT6vca4+mTJ1TG1T+lr8kooUsqpQP2+kG3LuYBBu2Nknh/vZue50lndeX6Zgq7ydbFfjtU+UbA0uZ6/WSVRFAXC6cyqf+1lmGtgYtHeCUNpblbn8m4/u5E+BflwfxPKj4ZOuoilA7Y9kQZl/TplZgPhEww+XK4m/uEzJbBFCNqAkfK0vCdJ+aVVPKN1E/6xzBuOFpOnw6uMniFwySp5UTlcMnnzt+GETtXJ1F/jNYBvrN8qekbEPQEH9QkzRfQ4ECHATVBQ3MbM98JAK9xbSf4thF6N1pGrC7FelL/KUo1sXjSxGUpyhb6L9UfomS3lSg2B97d+WfYS3NHYbY3jkWi72fJ7cfk+LT2R/RoxpXmzWTZ5vo/TwKtzbmBwnRIsoUapq8c+x0HAFOeED6eTZbxhV9B255qc7nwG2O0uYJOtvwNuan/B+0pRx1oBSCpCb5dKEB19J9RWVSqLypMoaLoUawL43SUlGjoxJpMg6tCl+vtaPGpNi/ejLh632R1V99A69JoRaG3ERSjv8tbYSkGnvTdB4Y4uN5B0LuhRt/7NQsH+ijUeUyYPe3LWuroD6PlhopVbS4Xf4t0LYVPru7CqSR9aldev/lwJvQ+tHLUO3RWwJyipcYcNepJOtycgl7AA2id/XIfWBkEvygd35LqxeyqbU9nczc8idkxTNE/l8Hdmvd+MwsH6XztpsMYV1c1JPMIZ79u5fWSxZ9By06hn7U5TMTGXfsIE2Yr4waw+QHympFeWZ5opepUTHqvRgsJH5p1Eg7AARiTAgK6/ClylNXl6iEGs0Fgxgk4VluJL5xRW/Yyfch5vZPQKlNoW5un0+ICN+QB3WtZoo4fygKdIMLcQcIoUVcPr2/lROpL0ALCjIU6qQr4dfgVrk3XmFFkGK/7PSb7lzC546cKpNv5Ox0D4ntJyo5jOHq6FMuswwm9M9gmXZMkMBMscnzN50j61K6cLttH3U2Wmez9TS1+OUUDPC34tRgWLobQBBQZRnUfZ8Jcxtb3Du4s/I5+C0p+wK7Kb6Sv2ykgtAMlYWjaOiCzSIdn3PyhLkyi8CWh7kPhBLRaHYKC1yGh9xOEG++29SleLLPAYo5NO1z1CcG3sKR/SlGVg/Jfqr9E2arTo/fwdvRHULSpQ0IYW9s6qcPpe7xyhJwNDJOYm7w0LL/B8d72bNnVpxME+yGTm55SS7i8ov67WJMO11l8L0HPkVzw9J+7wT0VC5blwLKQtOtenceS/mkTHUzl+m9xeqhzSXba9NUfZdJ8E0Wbb/9pEm2qzX31pVlA8abNFjqAotlIJZg97lMwWwazzuumLL3QeVMOBz2DIV5l5aHpa0Kf4+yqh3mY2ClcFEyFSXC69M6kkGWD2fejG00ZHmlehXErJ63STwpYQeKSYz8TBteFP3hSuuiM55PAqlOZssSho0UdVum1bjDHQWjC4eAJBEuAKHyhbsjZUrpqb5AuLIlpMnH98SBPkB8WX1JSoq9B0YWud2qiYu+qL3vvRrOeSodbXv4RJvT/oYBOG2HvNWiFXRVdYJblN+Fw3PwdWr+RDN93iT/MhzVeo/rjN4tsGdfvH15X90Sqz6L4UsbJrpg/kiXmIRRdeBJSUxaLquec2Ds+lQ7X1MRSigEogNd1OKFexoT+Ia4hZV5jEv3ykErk4QWpXhWiiSrHzghav3Q4ih5USmexZPT32Si5/gg0XVvRRw9blvROs+RQx6l0OKHfhm+MZg9K0VAlLMBQr7bDmc/h9VtpcEn/r0MqDMspXc/UEAtDJoUToW8J62SIU68gVATK4XYWpMH9xdF2vyXAglNqmk6HM5cjgV5mifkMVefS+hTw6zhcV78ErZuVCb6PKInW9XwHhbSzrtBfReh1t/P6YgHM0hDIKW6ugeYizeJ/i2+VI9dfZ3zLUUWSwf9T6nDzCOOt3Hl6fxFUElOBAnodh4MYGhResLgRVllTEsT6p/Cg0HbVlSrcdc/V7a7Lx/Klegdah0T9+tj1mAwKRsW62LWDRTmm0+H0t/FgE9+hiwDY/0VAff+rOlzag0icWQ+rq6npYBhVaNhHwP36NSjDr+bg6vMIegN+VHxs/bC8Ln2+zdbNH2nJkI4HwzZeARN1BBpoAGzjxid66WELKeBXdTiISUjhk9ZdxE/GtboeDKNi9ILAP5gEUblEGjnN1eBH+VzfhiFZWgcjc1mdxCSl9DCZB8M2XrloM+ab+f4AgcqAdeVVdThocC6aZfkdfY0XK1dh20aFCdNl8hfzsA2VK8KNyVzhgiGYX5QP/V+9LEjbVaFt27jkGObDfDis4lJ/dnhd3RMsT6hXxeEGd21PWLaS1zGIllwltW1UGMzG4NdR70Wpw/U/oOgBT2losUyyAmBkLtaRqlooRsu3bdtYvs4jzBopKun+f5mTDrXAzWP0+mLrVHE48utk/0aqCsP6bRsVgrdabHxHaX53KKPvROh7UfSAF5+nh9SwvH2yusveZi+vdGzbNkEhIZirW9l848feMYNMW3ilhPiGWL2gHkRTrpraNiqEkcPoBkMioYR9Wg747QuR85ZjZB6rY47z0gwVtm2bkDxMBJZA5ADo02ae+5jn6Ja83mXLATRq4vrLqEY55IOcDFsmR9tGxcb1XOdZ3WD1gECoQwwCdhC6Zy+rdMTzsTd6fC+rS6C2beOSA/LXrFVPIIC9XCvUdVEQCvhUh0uX1wcbjzXqMhPmO0XxSP/bNiquMwj3NKKEb4c9AOokis2hLuyAUze1bRuvvDByTwGBq+d56VEKKXypDsfVa0l6CX0tRfSxum0bFbcy/ytjchYzIFoZxQ5VJixneZJ46WVWJQRjlh+ct22bIv/cf4gkRQGBMhE2x6jkD4Uv1eFg6hGFPnXlclGdto0KgYtC+mFm1XP1iiCdLJ/u4rOKqpP+Z2lhzknEHZXbto1DjEE2772IAPh+Ly1qIQZwW4fqcPDEstdijh1zAlX8XP02jSrMcSjdpOnmZCz7Q5nOVfe1G/hjbDGqs6tMZHJem7YB4Qb8/i09joVChI0yRgpmvmlKv3/+h6ys64JEvZDAlz4Ol+hFAn3ct45LlxHIIfxG5T5aoTJ0KEN1XogUI0WaNluD9EIV8G0tHBwoxMuWt+lwZT3juajh2PGcFKgKS+qt0sUjdusiayAAjZIo40pS/yeFdGndNo3KzRWomwlm4SkmBJ21gSCuoCgDakRrdPNx5VFtXsYP8tqyje9tcbgbkDB/hDIegAL7cTWVhL4ezRd4U8F3GbE035jaarVlVBAUNdyBXLNIWpTb+2AtnGAxbyn+pW9TdJu7hGvLNrBvnks/rr8z2OaY6z93VipejI2S5FI8mx/eCzt/B6RsmgcdO0XZff+5/uesaJXO2zIqCCcQ8VNgK+dQ6qjnk3AS5oIQSW85pa2Bvag3WRfztmwj1Ne8eKarUNCh1mBKj77epRMpn9ozRgUfO7HXOiGmcyGkYFtGXauejFskqsLOIdS53gZi8RkeF88KweAtx8ZgsfwOJYeT/V8KYgmbxTBobFbB0JGbT3oBxRZW2XaIAj7f8Ty0TqBzE9PV2nI4iIcSshOUz5mTg+aghEVMeSJo+pi69ol36UOxuY9vG7bZgJxqx7j6JMqAAArXcz690GWk3VVX3u8p4MuF8N0ma2TqTp5lirZhVOCLHV8sk7GYx/WVaNsDXp1tTy+SQP+nbsaY8iN2lLmEacM2Qn0qiCXMWWaCEFwHwszVTWA0ob8XFC7rEFTwu8TB3LKdNql6tmFUkAkTOAjb68r1pwl2eIwKSa4+ZQmYtT3lJptjVvjThm0w+1RAz3wa5NQqGDo28YTj5p0EI486Tijgd/u06MqwjKduasOoMK0uZCMox84/FPpGFL0Bz921IBLq7wm8Bnan2Nwn3KRtI5d+AaVbum02bDmFMSLUwWyc4FMcyigTZbNyUcCnBnyl0HbpN2mjptihNu/Ah8WDcPVZjH3nMJGgahp09OxG87JyNGEXkHnStsFsqjLs4ce8e1oAIBR6nSR7ryGDbnlTwKduHYyN++HTfdJGBd7CLCHw+6hPzFwZ5jXI4g+7DVVN+A0VR280wJdic59sk7YNxi7DjjnSh3PNmSbVt4iCQfcP+DAdlonemYhGmTdsE3uCTdqo2MjYlKjOmPG8ocPV2EuCOhxgeR4KDoe1C0xlTBO212sAQvU5h6J3EtkRLPBwxIIPO9Vkr8OdPzh02KonUv8jiS+VD2wAGdRF0Sb7kmaZmMupIqf1xeJzmdSPh2UvmW2CtXlIsEneDDF24Xr7SERSiPM0gMwLRhcTzhJ1aSXQbSPDgA8BgGx96lGaanoBBN0+fjMPK9f6zfh4/1AXE/QVtoumJNITztxEIT2sW2XM1WKEsfmQkedkUg6Htkt2p2DqrI8qIa67SycyYR6o7AxgAAz41CU51rBwrKKXtTFMo8rSQp0vPtdeHjwm5k9Q9GHyLCWRNpxX91FIQ91j1255aqXtwSx+GJtjhJqUw1Wyy6U3Pw1lTAsCzMKnJuw+ZiMe+W8syA+BT4utOU4f7vawGJeaqj5VKRs0wqRxHzZQBstCqInSQ53aQK0hsaA29KKOIZtjhaHKgV1lXtkulKUsA1DOwerK0p1BS97Pi+CG/ofAF4Y+zlPkCR1IhLSyTdW3gs5Q5AP/YRtcTKp0F8UQTlcd0GaaUPAR5mQmkZGcy/CBvJDNkWoy6lIwzOr/WnaB3XBcSpfn70LFmmjK2ULgy96vEuUvecKt3BRgBTQ2CfPFGnzvCrKB132p9wV5VHm6AXNsqL1hG1B70+/VkOCDaVy7gnIP6TpuyE05nDRvIMkCOyH5ErZdO+1SbXzM73RSn09Ssg74whB2/nEYN8s/nYLjQTxdaKjuq62fbyIBLM1P9H8FeaRPkYqTiqvMb0z0/cw3Fa67eBYTur6zgT2acjiuTw/imLV/eu5YLY+doua1y8bb4eMWsxNL8cmwKwUFun5tgm8paEhjCiAauu8aF/iif3HjvAZy3MhgBgGMn8BmJ935Z6QNLVHvqv2qlNUTsEr0GxnszQZbZKV3T8I0KBcu1h6ho1DfqIDfY+k3I8gKCRaWwlZS3OB338li4Dqvq5vVXW7B7cOQk8PsYbJ/yYr9jx/sDGu2orEKyk4dR8oJl360K9Trj70u6b0HLTxcU6YArEHi+gckOpb/6jh+Ke0JtA2ryrHKHMe2sCuzeRUd4RqOeFtoTi+EXZKlM1pruDZ8G0XBspkmVZb5UHhOe13Zf33V9je8Dl4Pp1XPJh2uLLjPpPRG20WQlmsUXy+R/80D6esTWJyicBF80nL9/j0kXhS5DlZdiJ/RVErM1VOJT9HmdfT1Bfhp0oYkmWuPZWG+0zIfoxRFs4pArySpy9m8icE2WxR+1es202Hg48/1x+q0vbFrLzM/y6Te2wI+sHXYfjSfrM3HhK6QMemnXCV54SKfseuUdXr53WkotOwrZdp5Qdiko6M/kpoGth6GJRIUnvS6g57bSXQaWVm4rrcuzdVOsSECrBxVjoMpcP5AO1m6lRqwS0FYGrbjOQyiZ2V5NHdeI1T+JJwuMW8fg4KirAUfImzhr7uDffgLPz7ke/lNx9aaauTnmx8mwcx99NMre0W/e6jLJE7qTI3z63KAJf1TUpEpq8ytzZvUlTz2iHlrayK4VqNOl3mNzILnN1K+wYE81IWlZUtVYNUtzWnzcpTLfH3pRAChv0K4Ofj5dNTVWegmdl5ttYVbdtjsM5ukej0BE/yMpiyP0DkpvHvA4agTxr2yQUht6mLOXIM0S6y79NtOHrm6AcXglZJSP3R3FOZNTOg7STTH+T+cThtyKgirjUm7y5Y13J2s7o41PvnKygaD11XG50byS/NN1tFvKSPPYCbHOJaja20ZjEtOKkFPYrUxSCvnTgY4NZ3S/eMGjR3/7g0rA2CcLZQssJgjZreYER3c+/S6+SPTwW1htqMagKXP9X+kC2KHiwoDig5m3Wwj8oDQF5O5wwfETYs3qKNZomGslNoJdCeT+t1szrMRJMQNDT1JYYLBpNOV6ug0Ep3QB9C2gSGtNuwy2Lixfy4bjH3dXSIg5G1hXG9gsBwHk2wDbva4E8N6rA5Mcxq8Rn+ccX0zG4QfgEF1+Mi+hXF9XbqEB7bnrZrgox14JPoaBjFCYJqUSAfu70p5wjIf6O5PeqdVZdH4dRs3PpFJffZA7nQG0U4mNExrOzCIAG3uYLDqACY2d80FbO6GJ6FlkOrFTOjLWLpMKI0m/QgTZmvahtBEGqgIuxHx3vsZLBSFiGeDqOBg+ymyCwSGgShSEAOy6p5xzToaPOofqbTEpgGbRRIRgelHoGmHg9kyMUUEIgIOBJp0OK7e6eASsyMCEYEUgaYcjrIwMkIfEZhZBJpwOOjgiCkiEBFAIFDX4aBrOaaIQEQAiUAdh+PmKiSXWC0iEBFIEajqcJ2aW99G+CMCM4lAFYcLTdmaSSCj0hGBEAIQJo7qcNHZQqjG8ohACQJVloFEZysBMmZFBEIICN0jP9ngSRgdLoRsLI8IjBBIoxRzRVhxUFiuEx1uBGY8iwh4EUjjLZqHKz3Z7HdedDgvxLEwIjBAQCzW2xcuOlxsSREBJAJS/3Ktp5p1tvgNhwQ8VptdBCB2SNZh6p7HV8rZbUtR8wACXB3VqLPFJ1wA8Fg82wjUfZqVXR+fcLPdpqL2DgTEhMKKR4dzAB6zZxcBoT+FfpWkRsCNDje77SpqXoIA1+vRzib04+lOmmWvjq686HAloMes2UQANuNzOUpZvt1Bs6zMlRcdbjbbVtS6gEAaTDWN5Wcj0gaO6oIhBZdzleVHhxvCFk9mGQFavP+5HFRljuXKiw6Xgy7+mUUEOur5TOh9yNfJ3QxCXGeTy7nK8qPDZZGL5zOJAISnK3OO0jwzepW0YJXWK6wSsHWiw1nU4nEmEUj6xzCpv4t0uC2lGFlnwhyjw5VCGDNnBYGOugjpbMuMq1eUwoJxNFsnOlwphDFzVhCAHWWsM/iPfSck/uvyvZ3R4ZwwxoLVjoCcfxXS2ZaZb4fI6HCrvaVE/RpBQPTWoR2uo9Y4eUaHc0ITCyICIwSEWUI63AOji0rOosOVgBKzIgJZBBJ1BNLZlhnXn85eOnYeHW4MkpgREcgjwNVr0Q4HPZm+FB3Oh04siwgwxoT+INrhuHmdF7PocF54YmFEgDGpJd7hei/yQhYdzgtPLIwIwBPuo3iHU0d5IaM4nFRv9dKKhRGBVYkAfl+AR4P6kxxOnx2kFytEBFYdAlxvRj7h7gzqTnE4sXBqkF6sEBFYdQgIM49zOLPk1X395sNxdFZWD2xYeLaXXiyMCKxKBLj6PMpRuP66V//u4rNQdOxTcO2mw7z0YmFEYFUikOhP4BzFBGaZ9Ch7Dty7KrGMSkUEgggkfYFzOL3spQVzLO3TK3y81ksrFkYEVi0ClHVwycIZThy4eh/a4RJ9oZNOLIgIrGoEuvolaEfhOh80KAuM0Dei6cAuPDFFBGYRgTVr1ROY0LjNFaXexzq9l47h1F08C+1sQu1lV6rYYTIGYsyYHQSE3oJ3GL2dJer4ITgQBFaYPejrIVBRTBGBmUZA6HPQDjPoENnPoHdTakW8bpn5FrDOtBGi8rOFANc7yM4T7o3MxzEBB40pIhARYLBq4PyJO5xQ50WsIwIRAYsA19dNzOngFTSmiEBEIIPAINT5g807ndmT62jJsIynEYHZRiDpvZpx9VCDTvcoC60Un23Eo/Yzj0CiX86E/lp9p+vfE3slZ741RQBQCHTMCQy/ODXfGwm9l4m5iSXqhShesVJEICKwgsAGfSFpYFuo+5hU74j4RQQiAnUQgMHxpL+Jcf1lJsy3mNCPrXzr3ZkOgCfqQ0z0zmSX3vy0OmzitRGBQwmB/wcxNVEEziJ2lAAAAABJRU5ErkJggg==;" vertex="1" parent="GEuZke-Skp5Tfs3HKP2n-61">
          <mxGeometry x="51.25" y="29" width="68.75" height="40" as="geometry" />
        </mxCell>
        <mxCell id="GEuZke-Skp5Tfs3HKP2n-59" value="Spark on yarn" style="text;html=1;align=center;verticalAlign=middle;whiteSpace=wrap;rounded=0;fontFamily=宋体;fillColor=#1ba1e2;strokeColor=#006EAF;fontColor=#ffffff;" vertex="1" parent="GEuZke-Skp5Tfs3HKP2n-61">
          <mxGeometry x="18" width="84" height="20" as="geometry" />
        </mxCell>
        <mxCell id="GEuZke-Skp5Tfs3HKP2n-63" style="edgeStyle=orthogonalEdgeStyle;rounded=0;orthogonalLoop=1;jettySize=auto;html=1;fontFamily=宋体;fontColor=#FFFFFF;" edge="1" parent="1" source="GEuZke-Skp5Tfs3HKP2n-56" target="GEuZke-Skp5Tfs3HKP2n-6">
          <mxGeometry relative="1" as="geometry" />
        </mxCell>
        <mxCell id="GEuZke-Skp5Tfs3HKP2n-84" value="save" style="text;html=1;align=center;verticalAlign=middle;resizable=0;points=[];fontFamily=宋体;fontColor=#000000;" vertex="1" connectable="0" parent="GEuZke-Skp5Tfs3HKP2n-63">
          <mxGeometry x="0.1583" y="7" relative="1" as="geometry">
            <mxPoint x="6.550000000000001" y="-2.27" as="offset" />
          </mxGeometry>
        </mxCell>
        <mxCell id="GEuZke-Skp5Tfs3HKP2n-64" value="CDH集群" style="text;html=1;strokeColor=none;fillColor=none;align=center;verticalAlign=middle;whiteSpace=wrap;rounded=0;fontFamily=宋体;fontColor=#000000;" vertex="1" parent="1">
          <mxGeometry x="600" y="280" width="70" height="20" as="geometry" />
        </mxCell>
        <mxCell id="GEuZke-Skp5Tfs3HKP2n-75" value="通过livy提交任务" style="edgeStyle=orthogonalEdgeStyle;rounded=0;orthogonalLoop=1;jettySize=auto;html=1;entryX=0;entryY=0.5;entryDx=0;entryDy=0;startArrow=none;startFill=0;endArrow=classicThin;endFill=1;fontFamily=宋体;fontColor=#000000;" edge="1" parent="1" source="GEuZke-Skp5Tfs3HKP2n-65" target="GEuZke-Skp5Tfs3HKP2n-56">
          <mxGeometry relative="1" as="geometry" />
        </mxCell>
        <mxCell id="GEuZke-Skp5Tfs3HKP2n-65" value="" style="shape=image;verticalLabelPosition=bottom;labelBackgroundColor=#ffffff;verticalAlign=top;aspect=fixed;imageAspect=0;image=data:image/png,iVBORw0KGgoAAAANSUhEUgAAAIAAAACACAYAAADDPmHLAAAMWklEQVR4Ae1dC6wdRRn+o4kxGHxATSSKQuoDie9qiK9oNL6QGKJBsIoxKNqQmGCQpDEkNj6htPeendnjvaeFEARsUrWImkpRaKLBoiHWx/VRoT1n/jn3tqUgKRpBoqn599zdPbNn99zdndlzdvbMJCe7O2dn9n9888/znwGoS/D7F4Ev7weOp1Z//waOd8H25bPrQuJYOjqH1gHHb4EnbgeOe4GhDy352bFp3J+rEvC6W4YUHwIgvrbk62otK778duB4MoOHu2pN+9SJWxTnjxHeAAQeHoMb/nb61GlNI2BAfwzW2ILFcQRwFzIkwHA+o+TEAiShMnl9Rg7TjeZ4IBf9VMW5kCIBLg7mEiCXu1NSTzeKHX1hPtrxFLTwqukSW9evp5nM9Lj9tWNhXr47NwBcNZChvnRlq+Z/8I4DQIYI7Y52ALBbf9rUOwBoi9DuDBwA7NafNvUOANoitDsDBwC79adNvQOAtgjtzqAMAKhPbeLXll8dyYfisuLDb1L/n4IbByiIPf/YBdAWmwOhh0nLAiB/urQxBb04XQAwsQgMPwML3XNCMTT36okN0JYt8PGP0ajZ8KhYfkXGA0GUPn86PWWnfUcXAHGeTwHH/UGB6Jw4q1kgIMVz0UlVlANAGiiXmwGETu+sTMWHyHcASANAGDcAgpXmgPU+DEz+KbXUh8qnqwNAqOxx1/2ws/8Se3DA8Lo1FR+CwAFgnOIT/4lL6g8CmqsPlZvn6gCQUHK0DjI9nvWurS8IiirfVQFQqLBEBaqOlqCM8h0ASgKArESdQFBW+Q4AGgAgEHQvnn514Iury5mx1brOtQHS6/rI3I9rE4iDMN99/vRAMN99A3B8XAsAtBI4DBwfyJWXJ24Ik0DelcS5BDpO2Bn/hSOBfv/MXLQTHUxcGdGvS9ew/KJMJ3XD5J25mc5kVByMyGW4LV9+vY9FaXKvJM5QYCZdOd8fXuHLxK9z0e/1LgzoJycX3e8H6adRFfh4hRniaZn0kVcFAhm4VGV51YSmMp4HoHRGBJhT2anfEgsRGH28LAc9Mf2+uDzH+yHf2VcfH4xomNiNL+4zQnwgVMkiugeuVRnMiseA40fidyUzR0NpEPw+ooduaPo4FSh4Cnx8WHmX4a2Z72blkRXvyc8reVf64MkPGiM8ZIjcqsIQ1KfiB8Dx8Op36LoHtuL68BXI44YV5l311cPYChCBfv+twPq/Ao7LwCQ5ti4FzqIR8QBBN84kXRO1AlzcZhwAJKQiYSDUDEtRujSXz68I7fQux0eNy3AiVoD3zjVOeFwSngQ+1MBLEyr9z/HJCmkoD4I8Chi4vldF/4E0kZmNM9n4ixWfFDqCj/cA9QponICu9MwRa6n4YT7IFHt4M7TwmmCZGHUTCRgc+SoPSV7NPi/KV5hVeDK3asy/WSEMK2T27jclVWb2mRo2sydUewDqy++bVfhwbuzI653yp9DALFLgmPzHsMrM3tMMVBFi3LvTsRw3/uE5ZhUf5tbGLzkA1NwCUKGjtZiVBA/nHAAsAEA4tG4cBDrz/q46mFx10MK3GNd9kCE5LjhFTk6RZWUdTlEbR4EDQP2VT6BxALCgni5buvOkcwBwADBu/V0bwCJQOQtgkbLymPSi7zgAOAC4KqBoqWnS+84COAtgqwXYC+RoQghu4o88ebhg4OEjlQ6oWWkBhj2EqoFvfXLt4HrwsF0ZCKwDQJ61dPVRnzlKeLDy2fzoolUA8FCak6hlObVW3lGJFbAKADTDOKuhyCETRXopVgFglur+NKAXUWzed60CwFS9W9M0MsG4zoOnuSqAvHtnNbDeGx0AyKyx/tUziQE6UDKvWS/ynlVVQMhY47ZHXQPSdJJoyLvpq5UAICFQg7Ay4tdQyCT+plb/QPF3V6Z8kmNlMnRLwswP2pgu/Q4AMz4R5ADgAOCqgCrMqk15ujbAjFsBBwAHgGo6Na4X4HoBlfZfbapn60yrqwJqVQUsQbCjqtgBPn4zWPLG5UbwxfvAEx+HNl4DTHjgyT1A+wtxeVy7kDkATB0AS8GGkQv4mlJ1ceeJdasbS5UbMXQAmAoAjgLHOeN9cDoriOMm8OVPclsGB4CJAuAkePLbsH357FKlvUgib/lt4Ms9awLBAWAiAHg6OARzR/+VRXRo5N1W/9Pgy/jwzWSD1AGgagD0dgGdlVA03HTyjGCPY0+8F9ryk0ED0JNfBC4/BHPy5YWyu/nE6eDh14Aj7UWsdk8dABICSQpI55kWceQNtMaBdy8Fv39Lgb2BHwLa648RQB550ZqfClYVyd8pIHAAqAgAVOLWCp2VlwbrGri8V1FKadCJfdASm8HvvSnz0zuPnQtM/jL6ngNABQCgk1DHhfneq4HJrQVKumq21wIIk/8N3Mq2dc9LJYOsjYc/C0DgAGAYAJ3Dz0sVOkUOjn0hN6+qdgBXgeKLJ4Bn9Drm5BnA8U7jXdGI+VmcCxi3+zbvbQSO1P9XlTSZ56PB8rJIOas3tNTcWQBDCqGh2qzA+l+fkuJVsNHwcjJsOfWMZJSZ51myADS4kxVqt2V+f1cWqWbjZwcAd2cKjuO+WpT80WpmXybNxv6YDQD8D7yHN6TKrN37Rk2Vv1otiPj0tVQGdCNnAQAMeaqY2v0v1Fv5q+0ehp9Ipd9IZPMB8E+g/nwycPkpK5QfVgs01FxJaDoA2jI+kzgUIO28HQrWlisTR6DsWoSQ79RrowEgj4O/8rIRvgfj+GrXywYg0MllxkOTAZC2UQUNqNig7CwaGb7TLAaaDAAm3zUiLOsPyDA9PtBUACQPdSYk+PJCq0t/aBXonGdjoakAYGLniIx4f1cjAODjj0d4Kx3RVAAMH0lPwiE//sGp3/Y1/sKSH15pGnlBvri0zpWEzQTAUwqP9NDCqwyV/sdhIDM6a6n8T3drWV9+boTHUhFNBICH94zIwhf3aQPA5O6nt3SfHSwND0t10aux42SbCACOdygAMLF5Iy3driLQjmpFlU/ve3jSDDlNBEByn0JfXFRKyIpixCVmBJ7IRWca2sgiEV7AO0URiKEFGlXkyfAripipvtT+TgXb35JTiA5dPl6m8FnqgbpLOkTUMW1LXqnIguF1hnjcH/j3UcnT/XG5Axie0KKLzmHQDj7WYxmUUSB1L1bkUuU+/kbpLmhVPTE60aUwnufBXPeoTv3rDyisM/lDrZI2TSWP//atCp+lHljvo40TDhNqFVDfJV+6hcbAkrHOynmNA4DXV719mPxu43gky+CJ20sV+pFEHH/TKAHRfP9w4HijQf6WtEYA49FD3dI/2IZ3mM/S94E3a8EGyPi6SZ85rfzlvYosPPyyNgBYvwt0QpipsNA9Z+BvqCF38kY2EsiNWUvgGkxU892/K3LxxeXa/CWtivKBkg+e2KBFV0teUPLLKck47tUiphpFlrUk6mQQw/fr81bVSCBSlVKOT9qbwFigiY6yhNQxHZWuMAwmXsoJOeKtgpHA4NDJksrneChkz9w12NKsNEGaAjb83bbYrAiGFlFEyiz9LXMjgVSlBO2KkrQw3KbwZ+ShUVYg0RCkXbn0AVAnkKuDXUYAQJk0yQrQNHAYaBOGpgCA9hPorJwWsmb22iQrkHQF53igESCgoe1KAxedRgiKiwVFTk2Z90jOdipMmnpg+HP7QSCPw1ZcH4lk0Bv4i9V8+fL+iJ/KbzgetlpYVOcnPYNZ71q7eZIbK9e78oEmNJyG3an8/pnAUVgJgrTFroqyqnpg8rdWCiwGr9poIp/B+L86de3WoMXgXERhrHCkbdPWILDG//uJzaFoWbVN/LRlq7DOjCdg4nqrhKYq+MCIPDja0SA06go2IoWCETROYO9g0U0Kt51D6ywA9JJCc20erAVCYqu4ucNvri0IyJex9iEYORQ/BR//U1tBqlUBtWM2KXLt4Pra0e7Lvyo01v6B5qZphQqtU+PisdoJdAQE/fcoMqVt3Mu6aY3krdsYFrcptFn5QO7L5DxBXjm0fn2wNLu8N228ls5cHnR2z3BgDz0XfPzRVMFLu5O7MEUJ7N79TOB9OrXj0YkCgdzF0/Y0mqIoZvvTNIfAcPsEtoz/V3AmAS0SdaGGEuDyteDhAnhIG0OYHQgjl7VFcX4NuXYkjUjgO+IFMI9XAMc9wMXT5cBAJ4jK7wXtIjoSxgVLJbDlz8+CFl4KtC6Pej2+/AVwWt0b9H6oO0yTTQ8EDUomFoO6nVzBpxD+D1b69cAeluEpAAAAAElFTkSuQmCC;" vertex="1" parent="1">
          <mxGeometry x="297" y="272" width="60" height="60" as="geometry" />
        </mxCell>
        <mxCell id="GEuZke-Skp5Tfs3HKP2n-18" value="" style="group;fillColor=#d0cee2;strokeColor=#56517e;" vertex="1" connectable="0" parent="1">
          <mxGeometry x="100" y="479" width="320" height="60" as="geometry" />
        </mxCell>
        <mxCell id="GEuZke-Skp5Tfs3HKP2n-13" value="" style="shape=image;verticalLabelPosition=bottom;labelBackgroundColor=#ffffff;verticalAlign=top;aspect=fixed;imageAspect=0;image=data:image/png,iVBORw0KGgoAAAANSUhEUgAAADAAAAAwCAYAAABXAvmHAAADQElEQVRoBe1Y7ZGbMBBVCVdCSkgHlw7iElJCOnA6cM74Jj/jElICHfg6wAj/P3dA5u3qiQUDyXEOxhNpxoPQx+7btx8Sdi61xEBiIDGQGEgMzM3Aj+KDe67WLqs+za36Ovqeym8CPiv3bus3bls9XkfwXFLggV35VdRtio9ODPK52/ovc0F4vx4YAEM2xYODEWgY251+vl/4HBKsFzK/iirhhbsx4rn6HoHbDjxxF+EEkPBEX9v5XxJefXOLGhvyAkosknvxbcgAAM98vmz8qD5jhxlywSb44qwBePxgCEupBYkSi1xYbEMCI5FxIg/FO+bGvHRz45ADiHWECxjvNvECQqnc985318/+jtCBFwB0LN4xD2P7Qm120EMK+zzAtQAuN9jywKH7emb+POqhxVsjFcvngyf3PzMAYfHkP8tv6NowFjoWGPZrHlwme1ynltZueyriGDuZf3WZr/n6x6eUyVMhe7BPfuYrDB8zcdy/ti5wqExDukYNpgHYbDPejqP/Nw2HEOTIiRruNvSCls/aZdVRyigN4fyYAaO69fhGwqhiLlaFOg4DpPyZT0Fhu3ps1WoFdXmfAYMyVx3jetVbS72HzskG8PMu8y+ty1RWHuRYh2KenujTS7oPjDbeURntMQGHK4SvJZ5JEAgQo8IFbrIBcnT7XIQrwAfJfPTJEsCKEcZLDAkCskAV7DpO0Vg8bRMDQp2fboAkTy5MikC/UrDVUXRhDIoZBrxsqcIXi0f68FD0RHmQfaMG+HPQM5zEF0rsgALRuFVG9ho65T4IruMNkcAwgaoFLww19azutZ6065Uw6r6CAWAXwFA+ETJoVgmZxB1Gx5uPcwsMfXpMqk7IAXpP5QYZkajJBqBeKwtkCuBYe60BGh4shee4huCR0CyLXEvQejVAIq/lkEORENmhCDAH8KcXfpRD2YPPXoC+iW07r8yF0hqYs4IZNroHxMBI/Q+IRaCZa4hTueoBzncT3upp9bGQ4YIJDZMmNPBuhZEpAmsJk5BbyXrs6bKIPZTHKsb/hICBc3ja8tzVMekdyuV6i1J6pc8+GjQJ0Fs3kXk8mR9vlXHz9d2QuDmgBCAxkBhIDCQG/jcGfgOHmOz1pDD1HwAAAABJRU5ErkJggg==;" vertex="1" parent="GEuZke-Skp5Tfs3HKP2n-18">
          <mxGeometry x="18.03" y="9" width="40.27272727272727" height="40.27272727272727" as="geometry" />
        </mxCell>
        <mxCell id="GEuZke-Skp5Tfs3HKP2n-14" value="" style="shape=image;verticalLabelPosition=bottom;labelBackgroundColor=#ffffff;verticalAlign=top;aspect=fixed;imageAspect=0;image=data:image/png,iVBORw0KGgoAAAANSUhEUgAAADAAAAAwCAYAAABXAvmHAAACgklEQVRoBe1YPYsUQRB9scllGgkXeeBf8IMLxcBAMNFEzbxYt7tnD5x0YyMRMRGDQxH9AyYGBocimAjCYSDodPcsrGC6Um2X27bj7szuLThHLQz9Ma9eVb3p6ulZQH6igCggCogCooAoIAqIAp0VsLvYGhtcsgXKVa7AsYutzgEsY/CtwAmvcNtqvHca08O8iJO4yccysS20qQ3OWYWPHHSt8cFpvDqMK3IFQcgH+VoYUBeAM7jsNCYheIORL3G6i30bLHE6g1EUaEI+29i1wniFAyL2Cg9bGawAqgxuRF8HK9DMTKlAI+G72ex6e3FZTsn3ej0J+xoUmJY4FpfNfiyo2XZZYM8XuMlunYL+CxO3V6vxOi92N8SOK7DXZEM7USjkmf02+2ndfi9x3Gm8bXKQznmNJ0TqDG6l83mfgwpYjcf5fR5nuF/bqUb3BHyBp0Qa3qwNBNUdXGenAVPgKo3HGndzlewA9wN2iJ3K4CLbEUeOTceMsw3+U1xj32l8JYL80afguLymTuGZ17hC+HkJEMYP8IBwZJtyNfVXSqDWsAsTUPFlo/A8TYAdZ+1nCtIrPKJ5qzBqCjqdY/ulngAVXnD0D6UmJU6xA3pr2mQJcTK/72u8HGtsUnD1ANd4njjSgPM+4yiBeVduF8a1wlkmiG1+1uEdab9W2OAi5iWUJpEvF6fxJuHOecO40riQYNjXHy35aAyeJ2uDM9bghTf4kpOFQ5fBvR9DnCQ8b6OcAM3NS4KWUuDIT7IGnyqF84Ezv5eMFwbPSUj7PynA26ZX6O9hrtfH6VBYff+goSR6/UnJNdnrj3pOgtte/q3CwUsrCogCooAoIAqIAqLAEVHgJzs1cjsz4yxzAAAAAElFTkSuQmCC;" vertex="1" parent="GEuZke-Skp5Tfs3HKP2n-18">
          <mxGeometry x="77" y="14.999999999999998" width="35.09090909090909" height="35.09090909090909" as="geometry" />
        </mxCell>
        <mxCell id="GEuZke-Skp5Tfs3HKP2n-15" value="" style="shape=image;verticalLabelPosition=bottom;labelBackgroundColor=#ffffff;verticalAlign=top;aspect=fixed;imageAspect=0;image=data:image/png,iVBORw0KGgoAAAANSUhEUgAAADAAAAAwCAYAAABXAvmHAAADRUlEQVRoBe1YPYsUQRC91EC8YFHc+di7Cy4QFFMxMRUMTEz0NwgHgtvdCre/4AID4SITI0FEAzET1J9gIBgIysFxYiIYP6lxuq6mZ3und2d6WGQWlumu6XqvXlV3T89sbAy/IQNDBv6/DKQa6OyvMJMZShVmNWxnjBy/UrtG0FaQE2BNhHN/paClEwugbLX4jzU+S6wKh6xETAGSdNl2rnEpSMS6CiDBQSLWWcA8EWOFfVlNmqay37rtm7dtgN1KuCLaYNd8Ywggkt5ExBIwT0Tn04dIYgroRURsAVZENJ5owBS5+EXjiQYsgqdmNJ5owAECRg9x1h5fcoU7yQyp49bc7UvAlsIN+6eotg2uJBrHzF8eInONveaoxQgG6PoJKTjc5rbBBebVQKLxXvZzjVuuj7fPjh0IoGlgp4S80pNY9lONd5bXBkvVyTV+kT1TeOMN2L1hgYjAvbdMvwh+yXeJzOCF5MgUnpXxfJf2he0uBKwSfJFpjW8yODuVqBLSvrC9ioDNGbao5DSXZfD0PkBnoIWEtKUqTC3vROE5YRVTTOM32cnWhMH3LVDoFKKys4+YMqHBW+KJxqsucJZ6wGQGPzshLVUUi1vjD2MaHIZU0CahuLJzwyLOFA54rMEhOZdl//dVo7RVwAM61w5wZmeKyztTnAsYXh/CQTUIsO+7dJUoqcLbEuOHtPfWDhWQapzQWNopZHC0Z68qYPwAo1ThHlWSNoOJwUWJHdQOFZAYfOSxBvcJnEgTgyOyu3t6E/n5x7idKnxhTEqOwRFhNvlW7jNAwxQqtjqx67Bfacs0XtLhrALu6fjOQRZzrHHd41o3W6eQbdR9z2XfU2EfRhq7dZaqxVn8tWomGq+rHgt6HERDBSzE1T1sluWfpQY3yZ5pPGWcUzGN31x964lOqZav8crEgQJ8gKmGYqxAEQt2tK8+npqdSVsKIODU4G4xPUK+sVqRc54pucaTWqA+Q5cCfBzz7Hb3Yv5SUOYc8Ob5VmwM0EEFKsABncrTnbZijU8BbtUhfQmgBVscl51E7T5CQlv0eB95NbLAXl8CovFI4OAFGLJI3TF20ToVCMyzfxgLsASxr4MAfzGGO0MGhgyseQb+AoX/go2nTon1AAAAAElFTkSuQmCC;" vertex="1" parent="GEuZke-Skp5Tfs3HKP2n-18">
          <mxGeometry x="205.62" y="9" width="40.27272727272727" height="40.27272727272727" as="geometry" />
        </mxCell>
        <mxCell id="GEuZke-Skp5Tfs3HKP2n-16" value="" style="shape=image;verticalLabelPosition=bottom;labelBackgroundColor=#ffffff;verticalAlign=top;aspect=fixed;imageAspect=0;image=data:image/png,iVBORw0KGgoAAAANSUhEUgAAADAAAAAwCAYAAABXAvmHAAAFCklEQVRoBe1Zv4skRRS+5ECz00Awu/sDdpl9X+3CZAsXGHogB4rBCYKZrCCYyRkJYnDDZUa3wYUHu5oYrvgP7CZGBnuYGIjMGBmefM37ijc11T3TPb3HIrswVHe9qve+97Ne1966dfN3Y4HXb4GU0vtm9hjA0f7+/uT1IxgocTKZ3AFwBuBV8TunMqQPZH312xw8gQr8hZn9AmAR5kg7SSkdXj2iHhIK8Asz+yRu57srI+U4nrUpMplM7noIPgPAH713N/Ic5dmBPwIwdysvumKeIAAcFx5ZUsSBR0Xzc0rpySjAaZFKrHeCj4JbFGH4KQQXKaVv6CEaxMy+CKH4LPLq/QxgVlgwW6grLGqCWhR5VYYggF9dCcl6UOO3do7WCOBPaSH+XKmXgXa8lllY4Iqchv1LSpjZdwxTM/ve11wOqmgAJGRRYyB3lxYMWDsf3RjZEHznBs+1vwB8KwwMsU5mNSKAS7fArEYfMgfAojEc7IUsLZ4APuec06nknJ4TfaNRiTRIe5cwnU7fNrOPATwH8KcDZci82N3dfYfLPFSb80PeBHBbOUb53NcbR6jlpxtp3LFoOp2+ube3dx/A1ymlnwH846CasBFIlt2SjQoJE7ukdb4DeCCLKT47N6whevLyoGL78a/z/mNnZ+ctDxV6YV6yUSj3DiEyCl5gDI7W2xweHr6RUvrQvfABZckLCiPOBSMOiwK3mvqbs9I6274D+JIhIj4AmNDn4b05yXvHvxhwjOfBVowi05Znejl6IETAsMNMcuLJSIU0P2TsE8tK4OilITKbPTpUmFSb5AMVDR87TNzmXOnjxZjcfRSvKlnkw0qT5XQ2fiehY1U/k8cuBQA8BfC7K8vO9SOu94q1UmKrQLsmAzMCItAjtr2yrspu19imQErpK9/3W0rpU+FwLzQtx9heyFYtALNqzbzXUQWLa3PVEUiOZvajmb0X5/TMxHYZ23uBtdmrwzGtyR+TXEJIk+DCY40Ska51BwcH9wC8a2YMl78d7EPROQJoeiLNbVtMxCePHlINSE16XkTr8/lS9HI0s8/kzZTSD6SHRBYfhm7vglDKWnqvAM11u/JZSSBnNQt6m8Hk/QnAQ67xz051xlJC40rrsQRs0xeFj6xHINpbUS4LX5eUzjfnkQ42H5s2XHK2GltiPd9WtHiBLXLnlQsVdLBUYunDykv1xVbAtbkF4Fxh4hVJls/jOgUCf35i5naafEerShQi14YQEkhewTT5UFvDEOF+T9TztpCSIYJCumzIuSbaoLEIofIuiKHCwy5/XwRFm4oUlDtZB8CVpWGWQmrdvk56VMDDhWBz8jlgCq1Vk5knui7MVtqUKNxv7/p/YkYm5XNh3XM2cW6pFW8E6yvMOJbrTri/Ioe9Fte/rNHL9Ru/O9gIiM+09iNa1z2Ur1AEInquotjcQ4/XmfzpJnzjW8GNFeDC0G6XirCCPHZFeDGW6UziyhmS6XGtlC4TuhfIrsVFGLWBkBVJzx2m580s1Pyl/ZxnGR01bGrK+DftkvCKFUXn/w7637jVBI81Fw4YgmToMETYqfKfHwIex3GTcQxFisRkaTwiX090llfduY5bCscALx6VskhFGP/86f8CjSfKpKSiVx7rAto1VpSIoVM+6xBr5jftkbrkj0LzElmeyCX4+H5xbcDLAh77PGm7FOF/OXP7rb3XbuRZwSTXz2t7v3v/a6fVDaD/kQX+AyM+4owvLTWwAAAAAElFTkSuQmCC;" vertex="1" parent="GEuZke-Skp5Tfs3HKP2n-18">
          <mxGeometry x="263" y="9" width="40.27272727272727" height="40.27272727272727" as="geometry" />
        </mxCell>
        <mxCell id="GEuZke-Skp5Tfs3HKP2n-17" value="" style="shape=image;verticalLabelPosition=bottom;labelBackgroundColor=#ffffff;verticalAlign=top;aspect=fixed;imageAspect=0;image=data:image/png,iVBORw0KGgoAAAANSUhEUgAAADAAAAAwCAYAAABXAvmHAAAD4klEQVRoBe2aS0wTQRjHNyZy5erJg/GkNz2YaEwk8aDxQBPRA2gUEQ9gkCAaHhEFDA+DgiIi5REkPhtUiEQLSGnkJZbyaPqgFNomSAkoj4ItUUk+8610s9tOS3fbbjF2ks1OZ7755v/7vtmdbbsU5V4+SI5Q8tg2ql3ipOQSCNURrUiEXL00xX36wD7T4kMnmh0MBHg4JVvP1UkTAhPNHo2RD2HU2b4RoHLyFTyYkjlz9DUn2DKE10O8bEgACFFuermUra0+JFy4a6RI0UcQVwYQAI97xuez2brHe1xShJ3DCIAQJRNNlmuWqh3CxOOoMAMgRLGxQS/TyaKEQWwBAIQoNNSr/2kAhMjX1fXwh9giGUAAPG7ppHJ+EFsMACFydNXN/kOICEB1xtNRdkXb1/m6/lGjfxBiAsglcENf4zdEpraycnMIkQEO96X7DYAZSh+7X+QbQmQA3Hf2fkyCjNEKv0FSNGVZ3iHCAEBvni3HgGo+Drvfn/XrAIDtZIhwAfCdl6xe3EeJgB5bIgB8Ux5s+0gGgh1Rvv4iGeAbsWDbRzIQ7Ijy9RfJAN+IBds+koFgR5Svv/8+A/jtaGBBA7Nr36HR+g5OqvI4P8OXGptAtagF5Tc11FpaIHYwl+nH9mjFeeaz66kU27AvitDnsmHOgWTgx7oTbhsa4OhAJhzsvUJ/kwIAuDBcRItCuMFFLcSrC4DqSoDkkRKYdszCqQ3IseUJyB+v8wDAtqElnUc7I5q9zIQCYLTvGJs8JmFnAKPoEkuaPE1TAcPLBg8f2FZgqPdoJ/nwqp9ovEEe058By79XN50gz1CLCaF/cdjWdY5ov/jLDpIvOUzfadVNwMzuVF5k2nxpEQRQON4AmH6fjuUSeg3fNT0DnX0KrI4ZqLO2cq4BHF9lbgbZdAfj682MAvDYzDfT75WAvc7c6qmjZWB12vyfRC6BSyOl0GpTgtnxlXNx7u+5DGvrP4FqjwOqI46uJ6r/XkOMSLf5Oe1CAHYpk+mlwb6jcJz6mBAzh0uLbd8x9xmytFWQZ5CCYcXM6WPbEetCANBR2cRTUMyr6LsL2zHeeTBD2Ka1T0JM/1WOILwroQ17DGZHYzeBfsUM5aYXnD62HbEuFACdoRDjqhW654fgibUN+hfG6Pq+T6m0iGrza7A6bCCf66NtDSsWeGvrJgpEWCwHetOI/UTxmGmvxccy4DjrjIcz6gLADQv3Ak4f+uhKgKThYig2NjL7g4eNv3OR7AIGIDkVsy0CIGa0SXN5zYCIf3QLviZQo9ci4qsGggFQo9ci4sseggFQo88i0us2vADopR3bRhHE/wEiSBO7sjGoQwAAAABJRU5ErkJggg==;" vertex="1" parent="GEuZke-Skp5Tfs3HKP2n-18">
          <mxGeometry x="137.21" y="9" width="40.27272727272727" height="40.27272727272727" as="geometry" />
        </mxCell>
        <mxCell id="GEuZke-Skp5Tfs3HKP2n-74" value="读取" style="edgeStyle=orthogonalEdgeStyle;rounded=0;orthogonalLoop=1;jettySize=auto;html=1;fontFamily=宋体;fontColor=#000000;endArrow=none;endFill=0;startArrow=classicThin;startFill=1;" edge="1" parent="1" source="GEuZke-Skp5Tfs3HKP2n-7">
          <mxGeometry x="0.5" y="28" relative="1" as="geometry">
            <mxPoint x="327" y="480" as="targetPoint" />
            <Array as="points">
              <mxPoint x="327" y="470" />
              <mxPoint x="327" y="470" />
            </Array>
            <mxPoint x="-9" y="-20" as="offset" />
          </mxGeometry>
        </mxCell>
        <mxCell id="GEuZke-Skp5Tfs3HKP2n-79" value="选择hive仓库中的表" style="rounded=1;whiteSpace=wrap;html=1;strokeColor=#006EAF;fontFamily=宋体;fontColor=#ffffff;fillColor=#1ba1e2;" vertex="1" parent="1">
          <mxGeometry x="154" y="301" width="70" height="40" as="geometry" />
        </mxCell>
        <mxCell id="GEuZke-Skp5Tfs3HKP2n-86" value="存储&lt;br&gt;计算结果" style="rounded=0;orthogonalLoop=1;jettySize=auto;html=1;startArrow=none;startFill=0;endArrow=classicThin;endFill=1;fontFamily=宋体;fontColor=#000000;exitX=0.5;exitY=0;exitDx=0;exitDy=0;entryX=0.5;entryY=1;entryDx=0;entryDy=0;" edge="1" parent="1" source="GEuZke-Skp5Tfs3HKP2n-59" target="GEuZke-Skp5Tfs3HKP2n-34">
          <mxGeometry x="0.542" y="-24" relative="1" as="geometry">
            <mxPoint x="680" y="130" as="sourcePoint" />
            <mxPoint as="offset" />
          </mxGeometry>
        </mxCell>
        <mxCell id="GEuZke-Skp5Tfs3HKP2n-87" value="选择特征" style="rounded=1;whiteSpace=wrap;html=1;strokeColor=#006EAF;fontFamily=宋体;fillColor=#1ba1e2;fontColor=#ffffff;" vertex="1" parent="1">
          <mxGeometry x="154" y="261" width="68.25" height="39" as="geometry" />
        </mxCell>
        <mxCell id="GEuZke-Skp5Tfs3HKP2n-88" value="选择模型" style="rounded=1;whiteSpace=wrap;html=1;strokeColor=#006EAF;fontFamily=宋体;fillColor=#1ba1e2;fontColor=#ffffff;" vertex="1" parent="1">
          <mxGeometry x="154" y="222" width="70" height="40" as="geometry" />
        </mxCell>
        <mxCell id="GEuZke-Skp5Tfs3HKP2n-97" style="edgeStyle=orthogonalEdgeStyle;rounded=0;orthogonalLoop=1;jettySize=auto;html=1;entryX=0;entryY=0.5;entryDx=0;entryDy=0;startArrow=none;startFill=0;endArrow=classicThin;endFill=1;strokeColor=#67AB9F;strokeWidth=3;fontFamily=宋体;fontColor=#000000;" edge="1" parent="1" source="GEuZke-Skp5Tfs3HKP2n-89" target="GEuZke-Skp5Tfs3HKP2n-65">
          <mxGeometry relative="1" as="geometry" />
        </mxCell>
        <mxCell id="GEuZke-Skp5Tfs3HKP2n-89" value="运行模型" style="rounded=1;whiteSpace=wrap;html=1;strokeColor=#006EAF;fontFamily=宋体;fillColor=#1ba1e2;fontColor=#ffffff;" vertex="1" parent="1">
          <mxGeometry x="154" y="182" width="70" height="40" as="geometry" />
        </mxCell>
        <mxCell id="GEuZke-Skp5Tfs3HKP2n-98" value="notebook" style="text;html=1;strokeColor=none;fillColor=none;align=center;verticalAlign=middle;whiteSpace=wrap;rounded=0;fontFamily=宋体;fontColor=#000000;" vertex="1" parent="1">
          <mxGeometry x="307" y="215" width="40" height="20" as="geometry" />
        </mxCell>
        <mxCell id="GEuZke-Skp5Tfs3HKP2n-99" value="调&lt;br&gt;度&lt;br&gt;器" style="text;html=1;align=center;verticalAlign=middle;whiteSpace=wrap;rounded=0;fontFamily=宋体;fontColor=#FFFFFF;" vertex="1" parent="1">
          <mxGeometry x="288" y="292" width="38" height="19" as="geometry" />
        </mxCell>
        <mxCell id="GEuZke-Skp5Tfs3HKP2n-100" value="" style="endArrow=none;dashed=1;html=1;strokeColor=#67AB9F;strokeWidth=3;fontFamily=宋体;fontColor=#FFFFFF;entryX=0.996;entryY=0.639;entryDx=0;entryDy=0;entryPerimeter=0;" edge="1" parent="1" target="GEuZke-Skp5Tfs3HKP2n-33">
          <mxGeometry width="50" height="50" relative="1" as="geometry">
            <mxPoint x="100" y="342" as="sourcePoint" />
            <mxPoint x="130" y="570" as="targetPoint" />
          </mxGeometry>
        </mxCell>
        <mxCell id="GEuZke-Skp5Tfs3HKP2n-101" value="预&lt;br&gt;处&lt;br&gt;理" style="text;html=1;strokeColor=none;fillColor=none;align=center;verticalAlign=middle;whiteSpace=wrap;rounded=0;fontFamily=宋体;fontColor=#000000;" vertex="1" parent="1">
          <mxGeometry x="110" y="361.75" width="20" height="60" as="geometry" />
        </mxCell>
        <mxCell id="GEuZke-Skp5Tfs3HKP2n-102" value="建模&lt;br&gt;运行" style="text;html=1;strokeColor=none;fillColor=none;align=center;verticalAlign=middle;whiteSpace=wrap;rounded=0;fontFamily=宋体;fontColor=#000000;" vertex="1" parent="1">
          <mxGeometry x="110" y="220" width="20" height="60" as="geometry" />
        </mxCell>
        <mxCell id="GEuZke-Skp5Tfs3HKP2n-76" value="项目" style="rounded=0;whiteSpace=wrap;html=1;strokeColor=#432D57;fontFamily=宋体;fillColor=#76608a;fontColor=#ffffff;" vertex="1" parent="1">
          <mxGeometry x="139" y="367.25" width="120" height="60" as="geometry" />
        </mxCell>
        <mxCell id="GEuZke-Skp5Tfs3HKP2n-77" value="创建任务" style="rounded=1;whiteSpace=wrap;html=1;strokeColor=#006EAF;fontFamily=宋体;fillColor=#1ba1e2;fontColor=#ffffff;" vertex="1" parent="1">
          <mxGeometry x="154" y="342" width="70" height="40" as="geometry" />
        </mxCell>
      </root>
    </mxGraphModel>
  </diagram>
</mxfile>
